<!--?xml version="1.0" encoding="iso-8859-1"?-->
<!-- Generator: Adobe Illustrator 18.1.1, SVG Export Plug-In . SVG Version: 6.00 Build 0)  -->
<svg version="1.1" id="_x31_1" xmlns="http://www.w3.org/2000/svg" xmlns:xlink="http://www.w3.org/1999/xlink" x="0px" y="0px" viewBox="0 0 762 428" style="width: 762px;" xml:space="preserve">
<style type="text/css">
 .st0{fill:#94BF00;}
 .st1{fill:#E8D9CD;}
 .st2{fill:#231815;}
</style>

<g id="svgID1" transform="translate(124.99972534179688,-42.000022888183594) rotate(0,256.0002746582031,256.0000228881836) scale(1,1)">
	<path class="st0" d="M331.551,236.766c-0.348,0.537-0.15,0.232,0.323,1.02c0.477,0.781,0.205,0.448,0.389,0.931
		c0.188,0.482-0.185,0.3-0.631,0.237c-0.445-0.062,0.163,0.516-0.323,0.533c-0.503,0.024-0.003,2.457-0.142,2.715
		c-0.148,0.268-0.93-0.022-2.571-0.467c-1.641-0.442,0,0.001-0.215,0.391c-0.085,0.155-0.494,0.356-0.899,0.608
		c-0.702-0.984-1.534-1.835-1.77-1.657c-0.465,0.357-0.201,0.156,0.014,1.035c0.219,0.875,0.062,0.476,0.097,0.976
		c0.039,0.498-0.25,0.202-0.639-0.012c-0.389-0.213,0.011,0.523-0.44,0.366c-0.472-0.154-0.656,2.211-0.839,2.395
		c-0.206,0.191-0.849-0.335-2.263-1.268c-1.418-0.925-0.001,0.001-0.301,0.292c-0.29,0.273-2.589,0.261-2.028,1.493
		c0.557,1.213-0.07,2.558,0.045,3.074c0.109,0.508-0.719,0.879-0.666,1.484c0.02,0.185-0.153,0.273-0.404,0.32
		c0-0.084-0.002-0.166-0.002-0.249c-0.002-1.082,0.041-2.12,0.095-2.501c0.102-0.751-0.411-2.665-0.336-3.062l0.547-2.989
		l0.474-2.643c0.134-0.722,0.507-3.176,1.011-4.158c0.033-0.06,0.064-0.148,0.095-0.256c0.03-0.109,0.058-0.214,0.099-0.484
		c0.044-0.573,0.045-0.837,0.043-1.316c-0.01-0.892-0.112-1.978-0.267-3.036c-0.313-2.125-0.81-4.102-0.896-4.615
		c-0.092-0.518-0.43-1.753-0.72-2.94c-0.296-1.19-0.512-2.341-0.538-2.782c-0.094-1.814-5.002-1.862-4.988-0.542
		c0.062,1.246,0.027,0.546,0.906,1.26c0.891,0.684,0.458,0.468,0.933,1.003c0.479,0.522,0.082,0.651-0.279,1.039
		c-0.361,0.39,0.504,0.593,0.176,1.141c-0.335,0.579,1.903,3.604,1.99,4.157c0.094,0.551-0.678,0.938-2.208,1.864
		c-1.538,0.91,0.002-0.001,0.104,0.753c0.051,0.377-0.253,1.303-0.457,2.176c-0.099,0.439-0.174,0.867-0.149,1.237
		c0.01,0.248,0.051,0.205,0.118,0.253c0.069,0.077,0.156,0.292,0.301,0.4c1.161,1.012,1.147,3.827,1.43,4.527
		c0.3,0.701-0.394,2.205-0.152,3.15c0.245,0.942-1.669,2.231-2.226,3.059c-0.401,0.589-1.033,1.303-1.119,2.295
		c-0.452-0.402-0.882-0.754-0.974-0.905c-0.179-0.326-1.045-1.772-1.433-2.383l-1.28-2.008c-0.351-0.546-1.527-2.333-1.646-3.264
		c-0.059-0.47-1.023-1.925-1.965-3.345c-0.954-1.422-1.828-2.817-2.006-3.188c-0.188-0.369-0.737-1.245-1.112-2.057
		c-0.189-0.403-0.328-0.782-0.398-1.056c-0.074-0.282-0.079-0.419-0.072-0.511c0.025-0.181-0.234-0.392-0.587-0.692
		c-0.365-0.297-0.825-0.66-1.349-0.979c-0.527-0.321-1.102-0.571-1.617-0.613c-0.517-0.051-0.957,0.131-1.094,0.531
		c-0.255,0.794-0.233,0.985-0.155,1.098c0.089,0.108,0.276,0.187,0.667,0.678c0.408,0.46,0.525,0.564,0.587,0.673
		c0.064,0.101,0.063,0.201,0.315,0.455c0.5,0.487,0.12,0.618-0.195,1.05c-0.309,0.439,0.575,0.494,0.343,1.065
		c-0.113,0.295,0.522,1.061,1.242,1.694c0.719,0.642,1.505,1.197,1.629,1.415c0.248,0.434-0.364,1.022-1.438,2.444
		c-1.068,1.423,0,0.002,0.383,0.629c0.134,0.225,0.23,0.776,0.367,1.391c-0.568-0.652-1.587-1.596-2.624-2.46
		c-1.451-1.214-2.858-2.342-3.191-2.665l-2.049-1.755c-0.823-0.727-1.543-1.496-1.773-1.82c-0.91-1.329-5.179,1.106-4.501,2.198
		c0.679,0.987,0.299,0.438,1.402,0.55c1.096,0.075,0.623,0.13,1.289,0.305c0.669,0.15,0.398,0.474,0.302,0.982
		c-0.095,0.515,0.724,0.189,0.744,0.809c0.012,0.314,0.893,0.775,1.811,1.146c0.92,0.375,1.877,0.683,2.073,0.857
		c0.39,0.351,0.01,1.116-0.58,2.8c-0.592,1.681,0.002,0.001,0.558,0.496c0.28,0.248,0.656,1.134,1.113,1.905
		c0.461,0.773,0.989,1.428,1.716,1.287c1.487-0.313,3.432,1.286,4.068,1.531c0.694,0.22,1.116,1.642,1.813,2.156
		c0.173,0.14,0.275,0.355,0.242,0.598c-0.03,0.242-0.12,0.579-0.26,0.881c-0.268,0.622-0.689,1.211-0.844,1.595
		c-0.306,0.793-1.051,1.689-0.216,2.986c0.839,1.32,0.751,3.128,1.131,4.049c0.379,0.917-1.278,1.269-0.044,1.527
		c1.232,0.251,1.642,0.483,3.294,0.701c1.649,0.197,1.646-0.859,1.703-2.191c0.024-0.659-0.025-1.84-0.108-2.998
		c-0.079-1.154-0.219-2.276-0.246-2.696c-0.016-0.853-1.1-2.716-1.212-3.119c-0.045-0.211-0.169-0.805-0.37-1.452
		c-0.311-0.972-0.655-1.452-0.851-1.857c-0.41-0.752-1.068-1.735-1.519-2.33c-0.215-0.315-0.723-0.928-1.227-1.582
		c1.494,0.083,3.161,1.871,3.804,2.119c0.655,0.252,1.065,1.661,1.818,2.104c0.766,0.451,0.062,2.505,0.048,3.344
		c0.003,0.864-0.31,2.024,0.926,2.775c1.267,0.788,1.707,2.235,2.198,2.865c0.254,0.331-0.034,0.62-0.235,0.789
		c-0.204,0.174-0.303,0.257,0.309,0.358c1.232,0.226,1.624,0.454,3.224,0.965c0.788,0.281,1.265,0.005,1.511-0.642
		c0.036-0.094,0.053-0.204,0.078-0.308c0.36,0.242,0.775,0.51,1.42,0.891c1.432,0.829,1.676,0.333,1.982-0.218
		c0.288-0.551,0.771-2.105,0.988-2.406c0.192-0.298,0.009-1.463,0.123-1.618c0.11-0.15,0.621-0.839,0.858-1.13l0.779-0.958
		c0.214-0.26,0.959-1.111,1.568-1.157c0.048-0.003,0.104-0.027,0.166-0.06c-0.239,0.191-0.374,0.48-0.23,0.981
		c0.311,1.11-0.224,1.979-0.145,2.63c0.068,0.653-1.43-0.071-0.462,0.712c0.965,0.786,1.238,1.122,2.539,2.15
		c1.295,1.033,1.704,0.41,2.156-0.293c0.449-0.707,1.122-2.645,1.33-3.036c0.229-0.395,0.003-1.694,0.109-1.886l0.799-1.478
		l0.68-1.281c0.185-0.35,0.795-1.506,1.401-1.773c0.606-0.279,2.005-3.746,2.294-4.2c0.264-0.481,1.013-2.525,1.299-2.94
		C336.048,238.933,331.907,236.217,331.551,236.766z M327.061,249.005c0.135,0.619-1.727,0.594-2.315,0.799
		c-0.258,0.095-0.591,0.171-0.863,0.315c0.326-0.249,0.761-0.715,1.197-1.194c0.622-0.685,1.242-1.386,1.424-1.546
		c0.166-0.157,0.527-0.59,0.898-1.028c0.015,0.418,0.013,0.77,0.091,0.964C327.695,247.816,326.925,248.391,327.061,249.005z" style="opacity: 1;"></path>
	<path class="st1" d="M21.152,309.96c7.139-3.173,7.932-8.726,9.518-12.691c1.587-3.966,2.821-11.424,4.98-14.04
		c2.159-2.617,6.302-9.221,9.783-8.695c3.48,0.526,8.24-0.268,11.412-6.613c3.173-6.345,1.005-14.67,6.848-14.474
		c5.843,0.196,22.174-3.261,22.174-3.261s4.45,5.008,9.13,3.043c4.68-1.965,9.565-5.869,9.565-5.869s3.913,8.043,10.87,5.652
		c6.956-2.391,2.464-13.127,12.391-16.956c9.927-3.829,23.412-8.588,23.412-8.588s12.023,11.63,19.849,10.978
		c7.826-0.652,15.338-5.024,20.604-8.599c5.266-3.575,14.277-3.172,15.07,5.553c0.794,8.725,8.666,14.139,12.691,13.484
		c4.025-0.655,9.372,0.475,13.807,4.997c4.436,4.522,4.325-3.038,9.988-4.997c5.664-1.959,6.615-6.125,26.175,3.173
		c3.888,1.849-2.829,2.129,15.793,5.738c18.622,3.609,17.521,8.541,8.003,9.334c-9.518,0.792-15.37,0.365-35.447,4.148
		c-20.077,3.783-46.284,9.859-57.373,16.339c-11.089,6.48-24.866,13.926-28.685,16.152c-3.82,2.226-19.02,7.684-22.921,8.128
		c-3.902,0.444-20.434-3.034-23.731-1.935c-16.657,5.552-23.003-1.587-33.314-0.794c-10.311,0.794-36.487,2.381-41.246,3.173
		C45.742,313.132,21.152,309.96,21.152,309.96z" style="opacity: 1;"></path>
	<g>
		<path class="st2" d="M0,313.301c8.696,0,28.405-0.58,33.622,0c5.218,0.579,22.03-1.159,24.928-1.739
			c2.898-0.58,26.667-0.58,30.145-0.58c3.479,0,20.87,2.899,28.985,2.899c8.116,0,14.493-1.159,14.493-1.159l-1.739-4.057
			c0,0-4.637,1.738-8.696,2.318c-4.059,0.58-12.754,1.16-16.812,0c-4.058-1.159-16.232-2.319-19.71-1.739c0,0-22.609,0-25.508,0
			c-2.898,0-13.333,1.739-13.333,1.739s-14.492,1.16-19.13,1.16c-4.638,0-13.333-0.58-18.55-0.58C3.479,311.562,0,313.301,0,313.301
			z" style="opacity: 1;"></path>
		<g>
			<path class="st2" d="M158.258,305.765c2.319-3.479,4.059-10.435,9.276-9.855c5.217,0.579,9.275,0,9.275,1.739
				c0,1.739,0.588,5.214-4.054,4.056c-4.642-1.157-6.96-2.896-6.96-2.896s-2.319,2.318-1.739,4.058
				c0.579,1.739-1.739,4.638-1.739,4.638L158.258,305.765z" style="opacity: 1;"></path>
			<g>
				<path class="st2" d="M35.651,283.228c1.522-3.913,0.87-6.087,4.131-5.652c3.261,0.435,11.304-3.261,14.783-5.869
					c3.478-2.608,6.304-5,5.87-6.522c-0.436-1.522,0-8.043,1.739-8.261c1.739-0.217,10.869-1.304,11.739-2.609
					c0.87-1.304,4.348-3.043,6.522-3.26c2.174-0.218,5.869,0.869,6.74,3.043c0.869,2.174,4.783,4.566,7.826,5.652
					c3.044,1.087,6.304,1.087,6.304,1.087l-1.739-3.478c-3.696-0.652-5.652-1.739-8.261-3.479c-2.609-1.739-3.261-3.477-5.435-3.695
					c-2.174-0.217-5.218-1.522-7.609-0.87c-2.391,0.652-1.956,0.217-3.695,0.87c-1.739,0.652-1.522,0.652-3.696,0.87
					c-2.174,0.217-5,1.522-7.174,2.391c-2.174,0.869-3.913,1.087-3.913,3.043c0,1.957,0.217,6.087-0.869,7.391
					c-1.088,1.304-5.652,5.434-6.522,6.522c-0.87,1.087-6.956,4.131-6.956,4.131s-3.261,1.956-4.783,1.739
					c-1.522-0.217-2.826,0-3.479,0.652c-0.652,0.652-2.608,6.304-2.608,7.173C34.564,284.967,35.651,283.228,35.651,283.228z" style="opacity: 1;"></path>
				<path class="st2" d="M91.955,256.055c0,0,1.739-1.087,3.043-2.826c1.305-1.738,4.348-4.347,5.435-5.434
					c1.087-1.088,2.609-1.957,4.131-0.435c1.521,1.522,3.913,3.696,4.783,3.696c0.869,0,1.521-5.87,1.521-5.87
					s-2.826,1.304-3.478,1.087c-0.652-0.217-2.826-1.957-4.783-1.304c-1.956,0.652-4.13,2.391-5.652,3.695
					c-1.522,1.305-2.609,2.609-4.131,3.913c-1.522,1.304-3.913,1.304-3.913,1.304L91.955,256.055z" style="opacity: 1;"></path>
				<path class="st2" d="M66.303,281.707c1.088,0.435,3.479-1.304,4.131-2.609c0.652-1.304,2.826-2.826,4.348-3.913
					c1.522-1.087,5.869,0.435,6.739,0.87c0.87,0.435,1.739,1.087,0.652,2.174c-1.086,1.087-2.608,2.826-5.869,5.434
					c-3.261,2.609-5,4.131-6.522,5.218c-1.522,1.087-1.739,1.739-0.435,1.521c1.304-0.217,5.217-3.043,6.087-3.912
					c0.87-0.87,10.001-7.392,12.174-8.914c2.174-1.521,4.348-3.695,4.348-3.695s-0.87-0.652-3.913-0.217
					c-3.044,0.435-2.174,0.217-5-0.87c-2.826-1.087-4.131-1.522-5-1.957c-0.87-0.435-3.261-2.609-3.695-1.739
					c-0.435,0.87-1.305,2.174-2.609,4.348c-1.305,2.174-0.87,2.609-2.175,3.261c-1.304,0.652-1.956,1.087-2.391,2.174
					c-0.435,1.087-0.217,1.957-1.739,2.174C63.911,281.273,66.303,281.707,66.303,281.707z" style="opacity: 1;"></path>
				<path class="st2" d="M95.868,271.055c0.653-0.218,3.261-0.218,5-1.305c1.739-1.087,3.478-3.26,4.131-3.912
					c0.652-0.653,6.956-6.522,8.26-7.174c1.304-0.652,3.478-3.044,3.478-3.044s3.478-3.262,5.652-5
					c2.174-1.739,5.217-4.565,5.435-5.869c0.217-1.304-0.652-5.652,0.652-6.957c1.305-1.304,3.696-3.478,3.696-3.478
					s-2.174,0.218-4.348,1.74c-2.174,1.521-2.608,0-2.608,3.478c0,3.478-3.261,7.609-3.261,7.609s-5.434,4.565-6.521,5.869
					c-1.087,1.304-1.521,1.957-2.609,3.044c-1.086,1.087-1.739,1.957-2.826,2.609c-1.087,0.652-4.782,3.478-6.304,5.217
					c-1.522,1.739-2.174,3.044-3.696,3.695c-1.521,0.652-1.957,1.305-3.261,1.739C95.433,269.75,95.868,271.055,95.868,271.055z" style="opacity: 1;"></path>
				<path class="st2" d="M135.65,233.664c1.957,0.217,4.783-2.826,7.174-3.913c2.391-1.087,5.652-0.217,6.956,1.739
					c1.304,1.957,0.435,4.13,3.043,3.479c2.608-0.653,4.566-3.044,5.435-2.827c0.87,0.218,2.609,1.739,5,1.957
					c2.391,0.217,3.26,2.392,4.348,3.26c1.087,0.87,2.174,0.653,3.478,1.087c1.304,0.435,2.391,2.609,3.261,2.609
					c0.87,0,3.26-1.956,4.565-3.261c1.305-1.304,2.391-2.391-0.217-1.956c-2.608,0.434-5.869,0-7.173-0.435
					c-1.305-0.434-1.739-2.174-2.826-2.391c-1.087-0.217-1.739-0.435-2.392,0c-0.652,0.435,0.653,1.087-1.521,0.87
					c-2.174-0.217-4.565-1.304-5.653-2.174c-1.086-0.87-3.696-3.261-4.348-3.913c-0.652-0.652-4.348-2.609-6.522-1.957
					c-2.174,0.652-3.26,0.652-5.217,1.957c-1.957,1.304-4.783,2.609-6.956,3.043c-2.174,0.435-0.435,1.739-2.174,2.609
					C132.172,234.316,135.65,233.664,135.65,233.664z" style="opacity: 1;"></path>
				<path class="st2" d="M181.954,232.359c1.957,0.652,4.565,2.826,6.087,0.869c1.522-1.957,6.739-5.869,8.913-6.956
					c2.173-1.087,4.348,0.217,5,0.652c0.652,0.435-0.217,3.695,1.739,5c1.957,1.304,5.434,6.087,5.434,8.478
					c0,2.391,0.436,4.565,2.392,6.087c1.957,1.522,1.522-0.652,0.87-1.957c-0.652-1.304-1.088-4.783-1.521-6.304
					c-0.434-1.521-0.218-4.565-1.74-5.869c-1.521-1.305-1.521-3.696-2.391-4.348c-0.869-0.652-2.826,0-3.26-1.087
					c-0.436-1.087-1.086-0.87-4.131-2.174c-3.043-1.305-3.043-0.435-6.956,1.957c-3.913,2.391-3.044,2.608-5.435,3.695
					c-2.392,1.087-4.565,0.869-5.435,0.869C180.65,231.272,181.954,232.359,181.954,232.359z" style="opacity: 1;"></path>
				<path class="st2" d="M214.346,248.229c1.522,0.87,1.739,3.478,4.129,3.695c2.392,0.217,6.305-1.087,8.044,0.869
					c1.739,1.957,5,6.957,7.391,8.044c2.392,1.087,5.001-1.956,5.435-3.478c0.435-1.521,0.435-3.695-0.869-3.261
					c-1.305,0.435-4.348,0-5.218-0.218c-0.869-0.217-2.608-2.174-3.913-4.13c-1.304-1.956-2.173-1.739-5.869-1.521
					c-3.696,0.217-4.783,1.521-6.739,0.435C214.78,247.576,214.346,248.229,214.346,248.229z" style="opacity: 1;"></path>
				<path class="st2" d="M233.041,248.011c0.869,1.304,1.957,5.217,5.653,3.913c3.695-1.304,7.608-3.478,10.217-5
					c2.609-1.522,6.304-1.305,6.958,0c0.652,1.304,3.043,6.739,5.217,7.609c2.174,0.869,6.305,2.174,12.174,3.478
					c5.869,1.304,10.434,1.304,11.957-0.217c1.522-1.522,2.826-5.217,2.174-5.653c-0.652-0.435-3.044-1.304-4.782-1.304
					c-1.739,0-6.957-1.521-8.696-2.174c-1.739-0.652-11.087-4.348-13.696-6.304c-2.609-1.957-3.913-4.131-9.565-1.957
					c-5.652,2.174-6.304,4.348-10.217,4.782c-3.913,0.435-4.566,0.652-6.305,0.652C232.389,245.837,233.041,248.011,233.041,248.011
					z" style="opacity: 1;"></path>
				<path class="st2" d="M245.65,261.054c1.522,0.87,4.782,1.087,6.956,1.087c2.174,0,2.608,1.739-1.957,1.305
					C246.084,263.011,245.65,261.054,245.65,261.054z" style="opacity: 1;"></path>
				<path class="st2" d="M210.868,268.881c-1.522-0.653-4.131-3.261-10.652-4.348c-6.522-1.087-11.087-1.739-14.348-5.001
					c-3.261-3.26-0.87-2.173,1.739-0.868c2.609,1.304,9.13,2.826,13.913,3.695c4.782,0.87,8.044,2.826,9.565,4.131
					C212.607,267.793,210.868,268.881,210.868,268.881z" style="opacity: 1;"></path>
				<path class="st2" d="M131.52,292.793c2.609,0,9.13-7.174,12.173-11.087c3.044-3.913,8.696-12.392,12.392-14.348
					c3.695-1.956,6.739-2.174,6.304-1.521c-0.435,0.652-6.521,4.13-6.739,4.999c-0.218,0.87-0.87,4.565-2.609,6.739
					c-1.739,2.175-4.566,6.522-4.566,6.522s-2.173,0.87-1.739,1.522c0.435,0.652,1.087,3.478,0,3.695
					c-1.087,0.218-1.087-1.086-1.956,0.435c-0.87,1.522-5.87,10.87-7.827,12.392c-1.957,1.521-2.826,1.521-2.826,2.391
					c0,0.87,0.869,0.87-0.217,1.739c-1.087,0.87-2.391,1.957-0.87,1.957c1.522,0,2.392,1.087,3.261-0.87
					c0.869-1.956,6.739-13.695,8.913-15c2.174-1.304,3.695-1.522,4.348-2.174c0.652-0.652,1.087-2.391,1.957-3.695
					c0.869-1.305,6.087-10.87,8.261-10.218c2.174,0.652,1.957,2.174,3.913,1.74c1.957-0.435,1.739-2.174,3.261-3.044
					c1.522-0.869,3.912-4.347,5.217-3.695c1.304,0.652,1.739,1.957,2.608,1.087c0.87-0.87,1.305-3.044,2.391-2.609
					c1.088,0.435,0.87,0.87,3.044,1.957c2.174,1.087,8.043,0.87,13.043,0.87c5.001,0,6.304-2.174,5.653-1.957
					c-0.652,0.217-3.261,0.217-5.218,0.217c-1.957,0-5.652-1.522-7.391-2.609c-1.739-1.087-12.391-7.608-14.999-8.261
					c-2.609-0.652-4.131-1.304-5.001-1.304c-0.869,0-2.391-0.87-3.913,0.217c-1.521,1.086-4.347,4.13-5.869,4.783
					c-1.522,0.652-4.348,0.87-4.782,1.739c-0.435,0.869-0.653,2.391-1.957,4.347c-1.305,1.957-5.435,9.783-7.392,11.957
					c-1.956,2.174-5.869,6.522-6.956,7.391c-1.087,0.87-4.663,1.358-3.913,2.608c0.652,1.087,0.652,1.087,0.652,1.087H131.52z" style="opacity: 1;"></path>
				<path class="st2" d="M111.013,296.489c1.025-0.205,7.536-8.405,10.145-10.145c2.608-1.739,2.899-1.74,6.378-5.797
					c3.477-4.058,5.217-5.797,5.217-4.058c0,1.739-1.74,2.319-2.899,3.768c-1.16,1.449-4.927,6.087-6.666,7.536
					c-1.739,1.449-2.608,2.029-4.059,4.057c-1.449,2.029-2.607,4.638-4.637,5.507C112.461,298.228,109.564,296.779,111.013,296.489z
					" style="opacity: 1;"></path>
				<path class="st2" d="M496.797,255.338c4.808,0.202,8.237,0.258,10.586,0.16c2.346-0.084,3.633-0.285,4.243-0.171
					c0.602,0.091,0.491,0.606-0.425,1.233c-0.907,0.621-2.607,1.181-4.706,1.283c-4.186,0.19-8.245-0.067-12.092-0.242
					c-1.919-0.092-3.782-0.188-5.534-0.226l-1.289-0.012l-1.298,0.013c-0.896-0.003-1.761-0.049-2.593-0.124
					c-6.651-0.644-12.862-2.432-19.115-3.472c-1.562-0.266-3.514-0.564-5.459-0.704c-1.945-0.148-3.879-0.11-5.377,0.034
					c-1.497,0.136-2.559,0.347-2.783,0.253c-0.218-0.067,0.385-0.523,2.389-1.086c2.006-0.531,3.764-0.763,5.393-0.896
					c1.631-0.129,3.137-0.152,4.686-0.1c3.099,0.102,6.381,0.534,11.126,1.475c2.374,0.461,4.922,0.977,7.407,1.333
					c1.242,0.179,2.47,0.314,3.647,0.385c0.607,0.039,1.128,0.049,1.764,0.063c0.614,0.018,1.201,0.051,1.767,0.091
					C493.632,254.989,496.787,255.36,496.797,255.338z" style="opacity: 1;"></path>
				<path class="st2" d="M394.625,247.642c7.393,0.789,13.663,1.814,19.048,2.217c2.7,0.188,5.199,0.38,7.454,0.464
					l6.192,0.203c7.455,0.181,11.642,0.699,13.145,1.17c1.51,0.464,0.404,0.719-2.574,0.849c-2.984,0.119-7.863,0.305-14.043,0.2
					c-1.545-0.035-3.094-0.085-4.643-0.155l-4.622-0.281c-3.095-0.207-6.157-0.557-9.18-0.938
					c-6.043-0.769-11.955-1.635-17.716-1.881c-2.878-0.126-5.712-0.096-8.478,0.118c-2.741,0.215-5.441,0.686-8.064,1.245
					c-5.253,1.136-10.242,2.674-15.073,3.835c-2.416,0.584-4.862,1.113-7.348,1.503c-1.243,0.193-2.495,0.353-3.755,0.472
					c-1.26,0.118-2.547,0.171-3.741,0.228c-4.853,0.253-9.693,0.795-14.493,1.594c-4.8,0.798-9.559,1.853-14.269,3.121
					c-2.354,0.637-4.697,1.321-7.025,2.056c-1.175,0.374-2.314,0.73-3.464,1.137c-1.176,0.423-2.392,0.798-3.602,1.127
					c-4.863,1.37-11.064,2.04-17.082,2.659l-2.232,0.246c-0.727,0.116-1.535,0.21-2.279,0.264c-1.511,0.111-2.98,0.144-4.4,0.176
					c-2.837,0.054-5.477,0.098-7.761,0.294c-2.283,0.191-4.207,0.548-5.569,1.051c-1.372,0.49-2.124,1.148-2.366,1.31
					c-0.126,0.079-0.133,0.03,0.003-0.172c0.14-0.195,0.433-0.545,0.976-0.929c1.072-0.796,3.138-1.61,6.225-2.068
					c3.087-0.464,5.947-0.601,8.615-0.796c1.335-0.094,2.623-0.191,3.859-0.335c0.617-0.072,1.222-0.156,1.804-0.264
					c0.577-0.128,1.251-0.221,1.832-0.316c4.797-0.758,9.207-1.348,13.628-2.375c2.209-0.513,4.419-1.14,6.655-1.964
					c1.092-0.423,2.342-0.889,3.551-1.303c1.226-0.425,2.487-0.852,3.799-1.269c5.242-1.666,11.25-3.304,18.604-4.567
					c3.677-0.626,7.538-1.122,11.474-1.426c1.948-0.163,4.003-0.239,5.887-0.344c1.905-0.133,3.812-0.369,5.705-0.692
					c7.573-1.308,14.912-3.748,21.668-5.033c3.362-0.658,6.594-1.062,9.48-1.157c2.88-0.108,5.421-0.021,7.521,0.106
					C392.174,247.299,394.624,247.655,394.625,247.642z" style="opacity: 1;"></path>
				<path class="st2" d="M261.776,272.16c-0.85-0.573-2.318-0.899-4.005-0.884c-1.692,0.005-3.592,0.313-5.463,0.757
					c-1.874,0.444-3.73,1.018-5.434,1.551l-2.435,0.746l-1.108,0.313l-0.486,0.122l-0.46,0.135
					c-4.824,1.451-11.441,3.813-15.053,4.608c-1.807,0.414-7.574,2.166-13.437,3.79l-4.342,1.192
					c-1.397,0.383-2.7,0.808-3.905,1.211c-2.396,0.801-4.286,1.551-5.249,1.914c-1.926,0.73-5.288,2.201-8.331,3.811
					c-3.051,1.592-5.798,3.273-6.737,3.949c-1.872,1.369-0.686,0.655-4.636,3.002c-3.933,2.383-4.834,2.675-6.009,3.407
					l-2.971,1.982c-1.142,0.741-2.159,1.344-2.158,1.346c0.003,0.002-1.952,1.275-4.173,2.461c-2.217,1.193-4.669,2.317-5.455,2.456
					c-3.723,0.646-2.943,1.425-5.105,2.261c-2.149,0.84-4.068,0.98-8.197,2.99c-2.057,1.01-4.4,2.164-6.608,3.415l-6.377,3.554
					c-3.672,2.068-5.896,2.797-8.868,4.12l-2.985,1.298c-5.987,2.546-6.022,1.127-4.399,0.192c1.616-0.946,5.538-2.341,7.549-3.529
					c2.022-1.169,6.102-3.338,9.508-4.768c3.417-1.424,5.023-2.345,6.572-3.398c1.53-1.087,5.607-3.432,7.775-4.269
					c2.153-0.862,3.798-1.551,5.18-2.02c6.122-2.068,8.331-2.75,9.926-3.736c1.568-1.009,0.872-0.329,4.458-2.421
					c1.776-1.071,2.984-1.949,4.046-2.728c1.076-0.793,2.024-1.465,3.203-2.199c2.362-1.467,3.429-2.411,5.026-3.361
					c1.598-0.949,3.091-2.101,4.726-3.001c1.621-0.916,5.243-3.08,7.278-4.292c1.01-0.62,3.24-1.692,5.482-2.586
					c2.243-0.896,4.487-1.605,5.417-1.776c1.859-0.32,2.802-0.426,6.311-1.849c3.467-1.416,2.954-1.549,5.624-2.259
					c2.667-0.716,3.675-0.469,5.45-0.964c1.77-0.496,5.376-1.283,7.003-2.316c1.629-1.028,3.31-1.817,5.931-2.663
					c2.619-0.848,3.995-1.053,5.299-1.497c0.65-0.22,1.499-0.725,2.394-1.24c0.295-0.138,0.495-0.246,0.71-0.359l0.656-0.332
					c0.443-0.215,0.888-0.41,1.325-0.553c1.734-0.561,4.655-2.364,7.587-2.837c1.451-0.237,3.213-0.354,4.941-0.178
					c1.724,0.169,3.415,0.666,4.542,1.456c0.566,0.384,1.117,0.972,1.473,1.596c0.361,0.629,0.515,1.284,0.493,1.788
					c-0.019,0.508-0.181,0.866-0.4,0.993C262.641,272.691,262.395,272.579,261.776,272.16z" style="opacity: 1;"></path>
				<path class="st2" d="M109.587,330.75c-2.611,1.041-3.697,2.011-6.618,3.439c-2.919,1.429-4.557,1.002-8.435,2.48
					c-3.877,1.465-5.848,2.907-5.85,2.912c1.564-0.163,3.128-0.355,4.694-0.567c0,0.003,2.703-0.725,4.778-1.817
					c2.074-1.085,4.143-0.819,7.398-2.649c3.273-1.837,5.25-3.172,7.484-3.801C115.273,330.112,114.735,328.69,109.587,330.75z" style="opacity: 1;"></path>
				<path class="st2" d="M88.239,341.347c-2.378,0.22-2.268-1.142-4.929-0.377c-2.665,0.769-6.268,1.529-8.073,2.022
					c-0.898,0.265-2.733,0.618-4.366,0.767c-1.632,0.165-3.049,0.128-3.048,0.131c0.002,0-0.151,0.312,0.243,0.621
					c0.389,0.299,1.367,0.639,3.536,0.399c2.157-0.264,2.965-0.475,3.608-0.618c0.638-0.16,1.102-0.286,2.471-0.67
					c2.729-0.767,5.994-1.156,6-1.16C85.21,342.125,86.729,341.75,88.239,341.347z" style="opacity: 1;"></path>
				<path class="st2" d="M300.545,255.126c0.016-0.026-1.396,0.767-1.709-0.947c-0.223-1.682-1.177-1.925-0.69-3.22
					c0.507-1.278,0.229-2.183,0.309-2.923c0.041-0.373,0.014-0.93-0.127-1.496c-0.128-0.555-0.389-1.156-0.656-1.634
					c-0.261-0.475-0.579-1.387-0.993-2.325c-0.408-0.938-0.9-1.898-1.343-2.468c-0.89-1.129-0.899-1.898-1.573-2.609
					c-0.677-0.706-1.604-1.223-1.602-1.223c0.001,0-0.555-0.992-0.833-1.595c-0.266-0.603-3.382-4.376-4.351-5.725
					c-0.483-0.66-1.323-1.767-2.051-2.833c-0.731-1.006-1.475-2.061-1.775-2.535c-0.624-0.97-0.869-1.972-1.159-2.365l-1.168-1.56
					c0.008-0.012-1.766-2.683-2.461-3.534c-0.661-0.874-1.26-2.241-2.148-2.92c-0.87-0.669-2.278-1.943-4.14-2.663
					c-0.887-0.334-1.951-0.881-2.973-1.37c-1.038-0.487-2.134-0.915-3.281-0.968c-1.134-0.059-2.325-0.438-3.497-0.749
					c-1.16-0.313-2.23-0.575-2.791-0.455c-1.117,0.234-3.688,0.068-4.34-0.217c-0.65-0.289,1.461-0.727,2.6-0.848
					c0.568-0.062,1.706-0.145,2.767-0.191c1.06-0.05,2.045-0.048,2.298-0.086c0.253-0.041,0.838,0.253,1.494,0.569
					c0.662,0.313,1.38,0.65,2.054,0.643c1.386-0.066,4.16,1.415,4.872,1.787c0.365,0.181,1.378,0.709,2.318,1.35
					c0.945,0.634,1.812,1.368,2.165,1.583c0.36,0.198,2.218,1.71,3.86,3.676c1.665,1.942,3.209,4.175,3.841,5.025
					c0.631,0.872,1.916,3.04,3.242,5.141c1.269,2.078,2.63,4.012,3.02,4.531c0.788,1.035,3.448,4.947,4.555,5.765
					c1.124,0.809,1.553,1.921,2.478,3.096c0.952,1.165,2.02,3.459,2.342,4.239c0.169,0.398,0.716,1.643,1.046,3.034
					c0.321,1.381,0.305,2.722,0.382,2.971c0.175,0.489,0.63,2.132,0.883,3.917c0.144,0.878-0.052,1.353-0.306,1.682
					C300.852,254.996,300.546,255.127,300.545,255.126z" style="opacity: 1;"></path>
				<path class="st2" d="M328.866,256.324c-0.031,0.013-1.397-0.421-0.824-1.757c0.523-1.423-0.406-1.947,0.472-2.947
					c0.867-1.015,1.002-2.048,1.506-2.721c0.484-0.645,1.208-2.05,1.597-3.094c0.386-1.049,2.113-3.339,2.656-4.649
					c0.541-1.312,1.22-1.659,1.531-2.559c0.313-0.899,0.357-1.931,0.357-1.93c-0.001,0,0.633-0.902,1.04-1.395
					c0.203-0.246,0.803-1.428,1.4-2.737c0.586-1.29,1.215-2.777,1.583-3.491c0.68-1.45,2.386-4.721,3.009-5.658
					c0.599-0.952,1.407-1.569,1.646-1.982c0.976-1.658,0.997-1.647,0.992-1.649c-0.016-0.012,1.922-2.563,2.678-3.4
					c0.726-0.863,2.017-1.634,2.693-2.531c0.677-0.906,2.052-2.248,3.501-3.802c1.47-1.57,3.702-2.618,5.612-4.284
					c0.965-0.847,2.388-1.335,3.669-1.608c1.286-0.279,2.421-0.357,2.954-0.631c0.533-0.279,1.48-0.515,2.383-0.596
					c0.905-0.087,1.754-0.025,2.091,0.103c0.665,0.251-1.445,0.781-2.511,1.132c-0.543,0.16-1.62,0.48-2.577,0.868
					c-0.962,0.379-1.804,0.819-1.997,0.968c-0.367,0.277-2.543,0.1-3.472,1.118c-0.457,0.49-1.337,1.081-2.165,1.646
					c-0.831,0.561-1.611,1.089-1.925,1.325c-0.314,0.235-1.21,0.877-2.056,1.583c-0.851,0.701-1.652,1.462-1.882,1.788
					c-0.236,0.322-1.767,2.016-3.211,3.964c-1.465,1.934-2.837,4.113-3.341,4.988c-0.515,0.871-1.919,2.873-3.136,4.892
					c-1.232,2.008-2.276,4.017-2.531,4.592c-0.501,1.167-2.792,5.121-3.009,6.428c-0.199,1.319-0.977,2.158-1.519,3.473
					c-0.544,1.316-1.789,3.317-2.156,4.01c-0.37,0.677-2.55,4.53-2.546,4.983c-0.078,0.49,0.002,1.916-0.499,3.882
					c-0.27,0.995-0.827,1.469-1.258,1.626C329.185,256.437,328.865,256.323,328.866,256.324z" style="opacity: 1;"></path>
				<path class="st2" d="M304.634,234.576c-1.226-4.419-2.739-9.249-4.716-14.195c-0.989-2.473-2.098-4.972-3.349-7.45
					c-0.625-1.239-1.284-2.473-1.985-3.693c-0.691-1.208-1.464-2.44-2.17-3.72c-2.843-5.089-5.186-10.478-7.813-15.573
					c-1.311-2.548-2.687-5.027-4.193-7.361c-0.76-1.154-1.523-2.332-2.353-3.327c-0.85-1.026-1.777-1.981-2.747-2.868
					c-3.911-3.539-7.968-5.701-11.434-7.015c-3.489-1.311-6.448-1.733-8.631-1.793c-2.191-0.061-3.621,0.193-4.301,0.284
					c-0.681,0.11-0.633,0.046,0.152-0.151c1.56-0.346,3.992-0.994,8.098-0.561c2.038,0.232,4.477,0.768,7.254,1.885
					c2.765,1.124,5.895,2.809,9.074,5.466c1.584,1.334,3.013,2.77,4.242,4.327c1.188,1.581,2.216,3.147,3.172,4.713
					c1.906,3.122,3.457,6.159,4.858,8.95c2.764,5.603,5.037,10.196,7.014,13.379c2.01,3.217,2.507,4.25,3.788,6.963
					c0.629,1.368,1.447,3.177,2.573,5.998c1.119,2.823,2.543,6.663,4.209,12.131c0.416,1.367,0.792,2.67,1.136,3.908
					c0.349,1.276,0.622,2.363,1.014,3.434c0.747,2.129,1.475,4.025,1.994,5.723c1.078,3.383,1.294,6.019,0.939,7.621
					c-0.353,1.608-0.924,2.087-0.91,1.908c-0.039-0.184,0.36-1.05,0.384-2.636c0.051-3.212-1.734-7.222-3.112-10.441
					c-0.697-1.613-1.302-3.115-1.624-4.218L304.634,234.576z" style="opacity: 1;"></path>
				<path class="st2" d="M316.281,249.794c0.908-1.805,2.21-3.862,3.932-5.685c1.707-1.828,3.836-3.407,6.02-4.344
					c2.189-0.938,3.9-1.051,4.866-1.002c0.978,0.062,1.264,0.24,0.928,0.261c-0.34,0.03-0.834,0.253-1.61,0.588
					c-0.777,0.344-1.835,0.795-3.316,1.472c-2.984,1.387-4.83,3.374-5.724,4.569c-0.45,0.609-0.616,0.744-1.041,1.16
					c-0.397,0.43-1.146,1.108-2.196,3.117c-1.003,2.02-1.444,3.298-1.808,3.874c-0.34,0.582-0.587,0.451-0.547-0.248
					c0.04-0.691,0.123-1.629,0.243-2.399C316.147,250.39,316.282,249.794,316.281,249.794z" style="opacity: 1;"></path>
				<path class="st2" d="M314.073,254.627c0.675-3.669,0.422-9.017-0.009-13.342c-0.413-4.317-0.784-6.076-0.469-5.506
					c0.129,0.306,0.48,0.705,0.887,1.474c0.403,0.766,0.856,1.906,1.099,3.594c0.47,3.372,0.645,6.079,0.811,7.673
					c0.078,0.796,0.026,1.025-0.06,1.646c-0.097,0.622-0.193,1.637-0.453,4.01c-0.276,2.376-0.847,3.742-1.247,4.306
					c-0.409,0.565-0.621,0.369-0.529-0.288C314.296,256.867,314.081,254.623,314.073,254.627z" style="opacity: 1;"></path>
				<path class="st2" d="M325.865,207.73c0.438-0.765,0.921-1.525,1.412-2.257c0.685-1.032,2.065-2.997,3.317-4.92
					c1.267-1.908,2.288-3.87,2.686-4.46c0.569-0.767,0.996-1.941,0.907-2.939c-0.078-1.009-0.66-1.693-1.666-1.583
					c-0.829,0.084-1.248,0.637-1.522,1.283c-0.263,0.651-0.392,1.47-0.349,2.08c0.052,0.392-0.518,2.287-1.52,4.314
					c-0.978,2.027-2.233,4.193-2.8,5.282c-0.607,1.145-1.204,2.214-1.663,2.917c-0.083,0.128-0.27,0.439-0.522,0.907
					c-0.257,0.475-0.543,1.105-0.917,1.826c-0.73,1.475-1.628,3.454-2.445,5.686c-0.82,2.23-1.551,4.717-2.083,7.139
					c-0.541,2.422-0.885,4.775-1.117,6.719c-0.425,3.829-0.511,6.018-0.611,7.372c-0.087,1.355-0.141,1.877-0.189,2.39
					c-0.182,2.077,2.682,3.086,2.195-0.146c-0.111-0.782-0.201-1.357-0.238-2.634c-0.025-1.275-0.041-3.259,0.286-6.827
					c0.186-1.901,0.491-4.196,0.993-6.56c0.491-2.366,1.184-4.797,1.971-6.998c0.787-2.202,1.659-4.169,2.394-5.681
					c0.185-0.383,0.365-0.734,0.512-1.065c0.145-0.311,0.286-0.589,0.413-0.832C325.564,208.255,325.763,207.91,325.865,207.73z" style="opacity: 1;"></path>
				<path class="st2" d="M293.62,257.938c-1.158-1.159-2.029-2.898-4.347-7.246c-2.319-4.347-2.028-3.188,1.16-0.87
					c3.187,2.319,2.608,3.768,3.768,5.507C295.359,257.069,293.62,257.938,293.62,257.938z" style="opacity: 1;"></path>
				<path class="st2" d="M314.798,230.693c0-6.956,0-13.333-0.469-15.943c-0.468-2.608,0.782-2.608,0.938,0.29
					c0.156,2.898,0.782,12.463,0.313,16.231L314.798,230.693z" style="opacity: 1;"></path>
				<path class="st2" d="M303.33,230.982c-0.869-0.725-1.158-1.449-2.463-1.594c-1.305-0.145-1.738-0.29-2.464-0.435
					c-0.725-0.145-1.884,0.724-1.884,0.724s0.434,0.29,1.739,1.16c1.304,0.87,1.013,0.724,2.463,0.87
					C302.172,231.852,303.33,230.982,303.33,230.982z" style="opacity: 1;"></path>
				<path class="st2" d="M297.533,202.432c0-1.739,0.435-3.913,1.449-5.507c1.015-1.594,2.174-2.174,2.174-2.174
					s0.29,2.464,0.29,3.479c0,1.014-0.29,1.739-0.725,2.464c-0.435,0.724-1.014,0.58-1.449,0.87
					C298.838,201.852,297.533,202.432,297.533,202.432z" style="opacity: 1;"></path>
				<path class="st2" d="M315.36,209.678c-1.015-1.449-1.16-4.203-1.16-4.203s-0.58-3.333,1.16-1.304
					c1.739,2.029,1.448,2.464,1.594,4.493c0.145,2.029-0.725,3.333-0.725,2.898C316.228,211.127,315.36,209.678,315.36,209.678z" style="opacity: 1;"></path>
			</g>
		</g>
	</g>
</g>
</svg>
