<!--?xml version="1.0" encoding="iso-8859-1"?-->
<!-- Generator: Adobe Illustrator 18.1.1, SVG Export Plug-In . SVG Version: 6.00 Build 0)  -->
<svg version="1.1" id="_x32_" xmlns="http://www.w3.org/2000/svg" xmlns:xlink="http://www.w3.org/1999/xlink" x="0px" y="0px" viewBox="0 0 932 843" style="width: 831px;" xml:space="preserve">
<style type="text/css">
 .st0{fill:#FFFFFF;}
 .st1{fill:#595959;}
</style>

<g id="svgID1" transform="translate(133.2017036855221,88.70489959716798) rotate(0,332.79829631447785,332.79510040283196) scale(1.2999999999999998,1.2999999999999998)">
	<path class="st0" d="M347.421,238.762c5.338-1.779,20.567-8.636,8.208-11.139c-12.359-2.502-58.026-11.991-69.887-24.446
		c-3.558-12.454,10.082-11.861,22.536-11.268c12.455,0.593,44.48,13.641,44.48,13.641s-26.688-16.606-29.653-28.467
		c-2.965-11.861,11.861-2.965,11.861-2.965s22.893,9.61,24.791,13.108c1.897,3.498,0.711-3.026,0.711-3.026
		s-8.75-13.452-2.372-9.489c6.378,3.963,10.801,1.603,10.801,1.603s3.432-5.754,1.653-8.126s4.745-1.186,7.117,3.558
		c2.372,4.744,10.082,11.268,10.082,11.268l-0.593,7.71c0,0-3.496,15.306-1.155,17.142c2.341,1.836,1.762,7.577,4.424,6.782
		c2.662-0.795,1.476-15.621,1.476-15.621s3.443-17.639,10.024-14.75c6.582,2.889,14.292,10.006,11.326,18.309
		c-2.965,8.303-1.186,14.234-1.186,14.234s-3.083,4.079,4.151,12.454c7.234,8.375,9.439,14.985,14.827,24.316
		c5.388,9.33,7.26,20.421,0.368,26.817c-6.892,6.395-6.892,12.326-17.567,12.919c-10.675,0.593-27.617,2.736-36.642,7.892
		c-9.025,5.156-23.284,21.927-29.891,26.611c-6.607,4.684-25.5,18.474-29.622,21.487c-4.122,3.013-9.986,10.188,4.238,9.421
		c14.224-0.767,35.255-3.382,45.497,3.263c10.242,6.645,14.787,12.544,23.19,25.904c8.403,13.36,8.403,13.36,8.403,13.36
		s12.525-12.232,21.944-8.896c9.418,3.336,11.861,0,17.199,0c5.338,0,16.393,7.274,14.778,8.348
		c-7.068,4.699-5.289,9.418-8.847,10.321c-3.558,0.902-5.897,0.295-5.897,0.295l-6.929-0.59l-7.814-2.359
		c0,0-10.468,3.243-11.942,9.878c-1.475,6.635-14.744,10.616-14.744,10.616s-7.828-8.042-9.014-11.008
		c-1.186-2.965-16.879-13.548-18.464-16.035c-1.585-2.487,3.354,5.172,0.234,2.893c-3.12-2.279-12.882-7.631-12.882-7.631
		l-1.97,5.18l-10.236-6.767c0,0-15.141-2.244-18.53-3.286c-3.389-1.043-3.526-0.138-8.041,0.166
		c-4.515,0.304-10.444,4.928-10.444,4.928s-5.069,4.538-9.22,5.131c-4.151,0.593-13.047,1.779-17.199,2.372
		c-4.151,0.593-12.947-0.862-12.947-0.862s-10.615,30.076-33.321,39.218c-22.706,9.142-32.437,1.475-45.116-0.589
		c-12.679-2.064-25.196-6.142-31.847,1.769c-6.651,7.91-14.924,12.951-19.699,15.027c-4.775,2.076-13.641,2.372-13.641,2.372
		s-9.418,3.242-14.431,1.178c-5.012-2.064-5.602-15.039-5.602-15.039s6.485,0.293,11.794-2.36
		c5.309-2.653,12.357-5.388,14.449-13.859c2.092-8.47,6.837-17.959,12.767-19.739c5.931-1.779,3.559,6.524,17.199,7.71
		c13.641,1.186,29.894-3.009,29.894-3.009s4.879-2.368,9.436-4.424c4.557-2.056,6.782-7.077,6.782-7.077l2.204-10.812l-4.981-10.365
		c0,0-0.88,5.039-14.663,1.579c-13.783-3.46-17.219-14.472-20.87-21.615c11.769,0.568,26.002,1.754,32.526-9.515
		c6.524-11.268,18.119-34.871,27.06-41.101c8.941-6.231,23.351-10.496,32.84-17.613c9.489-7.117,23.723-32.026,27.281-33.805
		c3.558-1.779,35.584-20.757,40.329-20.757c2.831,0,11.465,4.24,16.013,3.558C347.53,244.233,347.421,238.762,347.421,238.762z" style="opacity: 1;"></path>
	<g>
		<g>
			<path class="st1" d="M381.758,374.542c0.624,0.862,1.272,1.751,1.813,2.719c1.091,1.923,1.963,3.979,2.726,5.925
				c1.677,4.392,2.825,6.973,3.844,8.745c1.018,1.769,1.816,2.78,2.858,3.929c0.66,0.718,1.282,1.139,1.719,1.3
				c0.441,0.161,0.69,0.09,0.711-0.145c0.053-0.501-0.804-1.503-2.517-4.626c-0.851-1.565-1.505-3.095-2.067-4.506
				c-0.561-1.414-1.026-2.721-1.455-3.928c-0.855-2.419-1.55-4.438-2.421-6.291c-0.437-0.928-0.862-1.762-1.319-2.554
				c-0.498-0.854-0.9-1.436-1.334-2.101c-0.867-1.294-1.763-2.578-3.015-4.177c-1.265-1.594-2.025-2.446-3.044-3.53
				c-0.513-0.541-1.098-1.135-1.893-1.874c-0.798-0.734-1.801-1.62-3.22-2.665c-1.739-1.258-2.706-1.741-3.516-2.093
				c-0.819-0.336-1.505-0.535-2.884-0.885c-1.381-0.335-2.369-0.664-3.549-0.987c-0.298-0.08-0.601-0.158-0.912-0.226
				c-0.298-0.07-0.621-0.142-0.987-0.211c-0.718-0.137-1.545-0.255-2.539-0.327c-1.988-0.138-3.28-0.309-4.412-0.511
				c-1.13-0.196-2.098-0.41-3.403-0.525l-3.43-0.303c-1.309-0.09-3.11-0.225-6.407-0.146c-3.299,0.091-6.278,0.499-8.829,1.104
				c-0.638,0.151-1.249,0.314-1.831,0.488l-1.584,0.492c-0.993,0.309-1.88,0.584-2.656,0.8c-1.541,0.427-2.935,0.967-4.047,1.283
				l-0.296,0.078c-0.082,0.018-0.163,0.032-0.244,0.04c-0.163,0.015-0.324-0.006-0.463-0.071c-0.139-0.062-0.256-0.157-0.357-0.252
				c-0.042-0.045-0.165-0.141-0.254-0.222l-0.287-0.263c-0.765-0.74-2.133-1.19-3.231-1.361c-1.107-0.185-1.985-0.156-1.985-0.159
				c0.668,1.442,1.391,2.653,2.052,3.666c0.334,0.507,0.642,0.96,0.959,1.378c0.08,0.107,0.162,0.21,0.25,0.314
				c0.1,0.112,0.149,0.19,0.351,0.354c0.368,0.309,0.766,0.584,1.191,0.78c0.851,0.4,1.78,0.453,2.613,0.328
				c0.203-0.028,0.434-0.074,0.578-0.107c0.133-0.029,0.255-0.062,0.369-0.096c0.231-0.067,0.432-0.141,0.616-0.22
				c0.729-0.315,1.192-0.709,1.414-1.117c0.44-0.811,2.737-1.478,5.672-2.19c2.786-0.679,6.349-0.941,9.466-1.491
				c3.133-0.552,5.689-0.236,7.635,0.151c1.953,0.393,3.32,0.863,4.279,0.744c0.958-0.121,2.693-0.024,4.406,0.206
				c1.718,0.225,3.392,0.587,4.308,0.816c0.473,0.113,1.096,0.233,1.79,0.402c0.693,0.166,1.445,0.378,2.139,0.601
				c1.386,0.447,2.524,0.957,2.524,0.954c-0.002,0.002,1.147,0.478,2.5,1.273c1.358,0.783,2.891,1.913,3.812,2.78
				c0.931,0.846,3.38,2.966,5.895,6.058C380.491,372.858,381.128,373.68,381.758,374.542z" style="opacity: 1;"></path>
			<path class="st1" d="M280.494,269.817c-0.082-0.292-0.173-0.526-0.246-0.691c-0.056-0.093-0.096-0.145-0.096-0.145
				c-0.095,0.139-0.169,0.48-0.276,0.708c-0.103,0.246-0.218,0.475-0.337,0.694c-0.241,0.437-0.503,0.834-0.769,1.209
				c-0.533,0.749-1.089,1.413-1.627,2.047c-1.082,1.259-2.111,2.398-2.999,3.481c-1.778,2.148-3.004,4.084-3.103,5.236
				c-0.089,1.143-2.45,3.85-5.869,6.866c-0.852,0.756-1.765,1.536-2.714,2.327c-0.938,0.783-1.917,1.556-2.925,2.32
				c-2.011,1.531-4.113,3.017-6.049,4.469c-3.889,2.903-7.446,4.552-10.243,5.784c-2.807,1.221-4.904,2.01-6.078,2.937
				c-1.175,0.926-3.467,2.381-5.722,3.928c-1.128,0.771-2.246,1.565-3.219,2.303c-0.982,0.733-1.814,1.429-2.383,1.927
				c-1.157,0.987-3.063,3.017-4.49,4.921c-1.446,1.892-2.475,3.594-2.479,3.591c0.002,0.001-1.068,1.682-2.237,3.857
				c-0.586,1.088-1.2,2.296-1.764,3.455c-0.57,1.158-1.078,2.277-1.525,3.129c-0.895,1.706-3.077,6.155-6.68,11.03
				c-1.797,2.432-3.946,4.963-6.389,7.263c-2.438,2.303-5.179,4.36-7.99,5.894c-3.165,1.728-5.905,2.692-8.199,3.305
				c-2.299,0.609-4.162,0.877-5.734,1.039c-1.575,0.158-2.867,0.206-4.077,0.211c-1.209,0-2.34-0.047-3.596-0.177
				c-1.578-0.168-2.813-0.323-3.607-0.352c-0.794-0.031-1.152,0.072-0.943,0.338c0.211,0.261,0.986,0.701,2.507,1.186
				c1.518,0.47,3.799,1.014,6.977,1.097c3.174,0.074,6.028-0.275,8.547-0.837c2.523-0.563,4.718-1.331,6.655-2.163
				c3.872-1.685,6.745-3.574,9.171-5.523c2.415-1.97,4.127-3.666,5.763-5.415c1.624-1.76,3.166-3.585,4.976-6.047
				c1.793-2.474,2.698-3.909,3.84-5.795c0.565-0.948,1.179-2.012,1.924-3.429l1.178-2.312c0.428-0.828,0.913-1.743,1.491-2.758
				c1.412-2.46,2.174-3.613,2.749-4.611c0.586-0.988,0.989-1.812,1.99-3.387c1.012-1.566,1.97-2.585,3.132-3.702
				c0.583-0.557,1.223-1.135,1.98-1.793c0.749-0.653,1.647-1.396,2.751-2.3c2.214-1.797,3.877-2.784,5.349-3.598
				c1.478-0.809,2.793-1.427,4.487-2.37c1.698-0.942,2.786-1.492,4.516-2.401c1.727-0.923,4.127-2.143,8.382-4.692
				c4.245-2.559,7.906-5.291,10.769-7.932c2.851-2.588,5.096-4.93,6.804-6.758c1.712-1.826,3.078-3.647,4.221-5.317
				c1.147-1.674,2.071-3.194,2.97-4.493c0.912-1.294,1.52-3.422,1.522-5.246C280.79,271.215,280.662,270.398,280.494,269.817z" style="opacity: 1;"></path>
			<path class="st1" d="M268.869,361.181c-1.475-3.243-3.834,3.539-4.718,8.846l0.884,5.014c0,0-1.473,2.36-1.473,5.013
				c0,2.654,0.59,9.436,0.294,11.5c-0.294,2.064,0.295,6.488,0.295,9.14c0,2.655-1.475,6.192-2.948,10.616
				c-1.475,4.424-6.488,12.975-7.373,15.039c-0.884,2.064-5.603,5.897-7.076,8.257c-1.475,2.358-1.18,0.294,4.423-1.179
				c5.603-1.476,1.77-2.655,5.013-6.488c3.243-3.833,10.321-20.052,12.089-23c1.769-2.949,1.769-4.718-0.295-6.488
				c-2.064-1.769,1.77-5.308,0.885-11.5c-0.885-6.192-1.179-13.27,0-16.218C270.048,366.785,270.343,364.426,268.869,361.181z" style="opacity: 1;"></path>
			<path class="st1" d="M360.574,193.398c0.591,1.18,2.064,2.36,2.949,5.897c0.885,3.538,0,12.68,0.59,14.744
				c0.364,1.273-0.592,3.315-0.884,5.896c-0.183,1.604,0.564,3.772,0,5.014c-0.446,0.979-2.61,5.111-4.837,8.662
				c-1.958,3.125-3.965,5.801-4.894,5.492c-0.595-0.198-2.519,1.868-2.105,2.707c-0.36,0.032-0.746,0.111-1.14,0.242
				c-2.653,0.885-10.025,2.359-14.154,0.885c-4.127-1.475-5.602-3.245-12.09-2.36c-6.487,0.885-7.667,2.949-11.795,5.307
				c-4.127,2.36-6.782,5.013-10.91,6.783c-4.128,1.769-6.782,5.012-10.615,5.012c-3.834,0-4.718,0.59-4.718,0.59
				c-0.59,0.885,0.294,4.718,3.243,6.192c2.949,1.475,3.245-1.179,6.488-3.832c3.243-2.654,6.781-2.36,10.32-4.719
				c3.539-2.359,7.078-5.013,10.911-8.256c3.834-3.243,7.373-7.667,14.155-2.655c6.782,5.013,15.922,1.77,20.051-0.294
				c2.388-1.193,2.604-2.189,1.849-2.647c0.314-0.064,0.675-0.16,1.1-0.302c5.307-1.769,5.013-5.897,7.372-8.846
				c2.358-2.948,2.949-6.782,4.423-9.731c1.474-2.948,1.77-6.192,1.18-7.961c-0.59-1.769,0.295-3.833,0.589-5.897
				c0.294-2.064,0.296-9.436-0.589-12.385c-0.885-2.949-1.475-3.244-2.949-4.128c-1.474-0.885-1.769-4.128-2.358-6.487
				c-0.59-2.359-2.36-5.013-4.424-5.013c-2.064,0,2.064,4.128,2.655,5.897C360.574,188.975,359.986,192.219,360.574,193.398z" style="opacity: 1;"></path>
			<path class="st1" d="M285.382,205.488c3.243,2.949,7.076,4.128,12.679,6.192c5.603,2.065,14.449,5.308,18.577,5.308
				c4.128,0,4.128,0.885,9.142,2.655c5.013,1.769,8.845,3.243,12.089,4.128c3.243,0.884,8.551,1.179,9.731,1.769
				c1.179,0.59,1.769,0.884,3.243,0.295c1.473-0.591,2.064,1.179,5.013,1.769c2.948,0.59,1.179-0.59-0.591-2.064
				c-1.769-1.475-6.193-0.59-5.013-0.885c1.18-0.294-1.179-2.063-2.948-2.654c-1.769-0.59-4.424-1.769-8.846-2.065
				c-4.424-0.294-10.321-2.358-13.27-4.128c-2.949-1.769-4.423-1.769-9.14-2.064c-4.718-0.294-22.116-6.192-25.655-8.846
				c-3.539-2.654-5.012-4.718-1.475-5.012c3.539-0.295,10.911-4.719,18.577-5.898c7.667-1.179,21.821,0.885,25.359,2.654
				c3.539,1.77,21.277,12.551,24.77,13.859c2.359,0.884-0.59-4.128-2.064-5.013c-1.475-0.884-4.424-1.769-6.488-3.243
				c-2.064-1.473-4.128-2.064-5.897-3.243c-1.769-1.179-5.603-2.655-6.488-3.539c-0.884-0.885-1.769-2.064-4.423-2.064
				c-2.654,0-5.898-0.884-7.962-2.359c-2.064-1.473-4.717-0.294-7.961-1.179c-3.245-0.884-16.218-0.589-18.282-0.589
				c-2.064,0-4.423,0.295-6.782,0c-2.359-0.294-1.769-0.294-6.782,0c-0.931,0.054-5.307,1.769-7.078,1.769
				c-1.769,0,0.295,3.539,1.475,6.193C280.075,199.886,282.137,202.538,285.382,205.488z" style="opacity: 1;"></path>
			<path class="st1" d="M325.485,185.436c1.769,1.769,5.309,3.539,7.372,5.013c2.064,1.475,1.475-0.884,1.475-0.884
				c-5.897-2.949-10.616-10.321-8.257-11.5c2.36-1.18,5.603,0.294,9.142-0.296c3.538-0.589,6.487-1.475,7.372-0.589
				c0.885,0.885,13.269,10.91,14.449,11.205c1.179,0.295,2.949-1.769-0.591-4.127c-3.538-2.359-5.012-2.949-8.257-5.604
				c-3.243-2.654-4.718-5.602-7.961-6.781c-1.953-0.711-4.356-2.284-6.782-2.655c-1.603-0.245-2.254-0.119-4.718-0.589
				c-1.091-0.208-2.499,0.367-3.117,0.044c-2.895-1.514-1.479-3.359-3.665,3.199C319.292,179.834,323.716,183.667,325.485,185.436z" style="opacity: 1;"></path>
			<path class="st1" d="M215.906,349.836c-0.005-0.04-0.007-0.085-0.013-0.122l-0.044,0.016
				c-0.034-0.038-0.092-0.066-0.152-0.09c-0.063-0.028-0.064-0.058-0.066-0.094l-0.03-0.594l-0.297,0.713
				c-0.199,0.482-0.446,1.351-1.262,2.461c-0.407,0.555-0.959,1.169-1.67,1.858c-0.705,0.696-1.581,1.455-2.509,2.453
				c0.004,0.01-0.381,0.34-0.951,1.062c-0.527,0.674-1.26,1.635-2.039,2.81c-0.776,1.175-1.599,2.565-2.245,4.1
				c-0.321,0.763-0.607,1.578-0.791,2.4c-0.189,0.814-0.307,1.626-0.38,2.401c-0.141,1.552-0.108,2.831-0.068,3.952
				c0.044,1.122,0.112,2.09,0.162,3.022c0.076,1.849,0.08,3.636,0.204,6.159c0.037,0.634,0.096,1.066,0.184,1.338
				c0.043,0.138,0.103,0.241,0.155,0.27c0.056,0.026,0.089,0.002,0.073-0.01c-0.075-0.132-0.03-0.8,0.042-1.734l0.297-3.392
				l0.159-1.834c0.052-0.601,0.066-1.186,0.08-1.684c0.05-2.02,0.012-4.013,0.213-5.947c0.098-0.963,0.263-1.919,0.514-2.826
				c0.263-0.903,0.628-1.805,1.052-2.674c0.848-1.744,1.997-3.649,3.378-5.565c0.64-0.901,1.531-1.729,2.43-2.583
				c0.902-0.858,1.856-1.743,2.639-2.847c0.433-0.608,0.71-1.245,0.841-1.802c0.111-0.455,0.126-0.845,0.101-1.146L215.906,349.836z
				" style="opacity: 1;"></path>
			<path class="st1" d="M202.067,394.737c-0.357,0.89-0.707,1.748-1.234,2.607c-0.265,0.469-0.464,0.956-0.785,1.324
				l-0.138,0.169c-0.043,0.049-0.083,0.097-0.132,0.146c-0.093,0.096-0.197,0.192-0.306,0.289c-0.22,0.196-0.469,0.395-0.72,0.628
				c-0.379,0.348-0.619,0.701-0.731,0.978l-0.163,0.401l0.388-0.037c0.212-0.021,0.299-0.116,0.366-0.169
				c0.063-0.06,0.102-0.111,0.128-0.151c0.055-0.079,0.064-0.118,0.044-0.129c-0.021-0.01-0.074,0.012-0.16,0.06
				c-0.082,0.038-0.203,0.135-0.367,0.13c0.219-0.315,0.62-0.66,1.165-1.006c0.546-0.345,1.229-0.832,1.699-1.553
				c0.235-0.338,0.447-0.677,0.683-0.957c0.098-0.121,0.138-0.209,0.199-0.292l0.169-0.262l0.32-0.528
				c0.411-0.705,0.76-1.404,1.037-2.014c0.441-0.968,0.822-1.955,1.192-2.932l0.553-1.464c0.196-0.515,0.343-0.929,0.568-1.395
				c0.422-0.917,0.95-1.89,1.219-3.042c0.072-0.28,0.115-0.627,0.127-0.901c0.015-0.283,0.02-0.523,0.048-0.724
				c0.014-0.1,0.032-0.194,0.055-0.282c0.014-0.044,0.025-0.09,0.043-0.133c0.029-0.073-0.003-0.004,0.038-0.088
				c0.111-0.217,0.229-0.43,0.357-0.648c0.253-0.433,0.547-0.906,0.813-1.433l0.124-0.249c0.021-0.053,0.043-0.14,0.052-0.17
				l0.028-0.101l0.114-0.41l0.225-0.829c0.301-1.111,0.616-2.277,1.008-3.406c0.434-1.17,0.835-2.413,1.187-3.668
				c0.08-0.304,0.193-0.643,0.251-0.975c0.067-0.313,0.141-0.616,0.225-0.921c0.165-0.608,0.372-1.202,0.623-1.771
				c0.126-0.284,0.251-0.549,0.372-0.797l0.183-0.368c0.071-0.153,0.12-0.279,0.167-0.401c0.18-0.489,0.286-0.873,0.367-1.168
				c0.076-0.293,0.119-0.497,0.103-0.619c-0.017-0.123-0.101-0.166-0.271-0.081c-0.168,0.085-0.411,0.315-0.681,0.711
				c-0.135,0.197-0.278,0.434-0.432,0.7c-0.08,0.135-0.153,0.262-0.243,0.398c-0.098,0.146-0.201,0.313-0.303,0.493
				c-0.411,0.72-0.81,1.661-1.114,2.821c-0.077,0.283-0.153,0.609-0.212,0.896c-0.066,0.277-0.158,0.583-0.249,0.909
				c-0.183,0.644-0.389,1.331-0.628,2.063c-0.002,0.001-0.176,0.478-0.51,1.289c-0.343,0.849-0.74,2.038-1.165,3.417l-0.327,1.061
				l-0.086,0.273c-0.045,0.14-0.012,0.057-0.058,0.147c-0.086,0.162-0.176,0.324-0.273,0.488l-0.627,1.035
				c-0.108,0.184-0.215,0.373-0.318,0.567l-0.09,0.173c-0.038,0.095-0.058,0.153-0.081,0.213c-0.042,0.127-0.079,0.256-0.105,0.385
				c-0.112,0.524-0.091,0.983-0.131,1.325c-0.032,0.323-0.132,0.688-0.254,1.042c-0.247,0.712-0.609,1.42-0.942,2.155
				c-0.164,0.364-0.326,0.748-0.444,1.106l-0.344,0.978l-0.589,1.765C202.732,392.903,202.417,393.845,202.067,394.737z" style="opacity: 1;"></path>
			<path class="st1" d="M216.357,377.785c-0.104-0.046-0.263-0.09-0.497-0.134l-0.191-0.032l-0.052-0.008l-0.035,0.015
				l-0.028,0.083c-0.038,0.116-0.079,0.254-0.123,0.416c-0.098,0.381-0.178,0.62-0.278,0.945l-0.342,1.088
				c-0.262,0.812-0.599,1.795-1.045,2.971l-1.613,4.158l-0.58,1.396c-0.18,0.446-0.387,0.968-0.617,1.601
				c-0.214,0.649-0.411,1.274-0.709,1.96c-0.293,0.678-0.653,1.378-1.097,2.062c-0.221,0.34-0.461,0.681-0.72,1.01l-0.82,1.037
				c-0.553,0.672-1.169,1.339-1.763,2.04c-0.298,0.349-0.591,0.708-0.866,1.081c-0.138,0.186-0.273,0.374-0.402,0.569l-0.144,0.219
				l-0.017,0.024l-0.039,0.006c-0.285,0.071-0.59,0.225-0.8,0.374c-0.223,0.152-0.4,0.316-0.562,0.471
				c-0.317,0.313-0.564,0.607-0.799,0.856c-0.233,0.249-0.442,0.446-0.642,0.569c-0.277,0.168-0.557,0.344-0.822,0.492
				c-1.07,0.62-2.05,1.096-3.013,1.529l-0.732,0.317c-0.269,0.122-0.518,0.248-0.763,0.387c-0.491,0.276-0.956,0.593-1.42,0.922
				c-0.466,0.331-0.934,0.672-1.45,0.997c-0.509,0.332-1.085,0.596-1.747,0.9c-1.332,0.613-1.692,1.065-1.542,1.033
				c0.15-0.017,0.828-0.353,1.855-0.67c0.507-0.167,1.114-0.36,1.725-0.667c0.608-0.293,1.227-0.659,1.836-0.997
				c0.607-0.342,1.227-0.649,1.819-0.856c0.626-0.207,1.266-0.419,1.806-0.637c0.566-0.223,1.129-0.465,1.681-0.732
				c0.277-0.129,0.549-0.272,0.822-0.413l0.401-0.219c0.134-0.075,0.256-0.137,0.429-0.247c0.636-0.429,1.022-0.928,1.42-1.32
				c0.195-0.197,0.385-0.371,0.558-0.484c0.088-0.057,0.168-0.097,0.24-0.123c0.046-0.014,0.025-0.018,0.2-0.034
				c0.134-0.012,0.292-0.015,0.433-0.021l0.406-0.657l0.215-0.321c0.149-0.211,0.303-0.42,0.466-0.629
				c0.324-0.416,0.672-0.824,1.029-1.236c0.358-0.411,0.724-0.827,1.085-1.259c0.181-0.217,0.36-0.438,0.536-0.665
				c0.169-0.224,0.329-0.438,0.504-0.652c0.738-0.951,1.402-2.071,1.901-3.307c0.251-0.614,0.471-1.27,0.646-1.914
				c0.173-0.607,0.397-1.234,0.625-1.87c0.915-2.541,2.098-5.176,2.976-7.976c0.22-0.7,0.364-1.348,0.445-1.913
				c0.022-0.139,0.035-0.276,0.05-0.406l0.018-0.19l0.006-0.09l-0.003-0.034l-0.043-0.308
				C216.347,378.145,216.76,377.971,216.357,377.785z" style="opacity: 1;"></path>
			<path class="st1" d="M180.01,381.339c1.267,0.465,2.581,0.769,3.809,0.961c0.939,0.138,1.761,0.211,2.502,0.243
				c1.349,0.204,2.335,0.218,3.258,0.187c1.052-0.046,2.032-0.143,3.409-0.349c0.688-0.109,0.915-0.225,0.843-0.293
				c-0.056-0.056-0.299-0.092-0.649-0.127c0.378-0.065,0.769-0.134,1.193-0.213c0.994-0.195,1.326-0.336,1.226-0.396
				c-0.025-0.016-0.079-0.028-0.156-0.036c0.124-0.035,0.166-0.069,0.139-0.112c-0.052-0.079-0.381-0.176-0.862-0.227
				c-0.479-0.054-1.104-0.058-1.709-0.077c-0.607-0.013-1.174-0.083-1.659-0.151c-0.953-0.13-1.92-0.309-2.917-0.451l-0.756-0.099
				l-0.095-0.01h-0.001l-0.039-0.008l-0.188-0.034l-0.376-0.063l-1.49-0.223c-0.987-0.141-2.094-0.217-3.235-0.4
				c-1.135-0.185-2.325-0.485-3.34-1.084c-0.481-0.28-0.879-0.466-1.187-0.535c-0.126-0.1-0.25-0.203-0.371-0.309
				c-0.181-0.284-0.376-0.562-0.577-0.849c-0.095-0.135-0.219-0.27-0.352-0.408c-0.419-0.606-0.951-1.215-1.316-1.64l-0.502-0.498
				l-0.439-0.469c-0.173-0.189-0.341-0.391-0.51-0.588c0.542,0.381,1.205,0.812,1.973,1.24c0.557,0.311,1.169,0.617,1.827,0.896
				c0.667,0.283,1.354,0.513,2.048,0.733c1.398,0.438,2.853,0.781,4.206,1.015c2.712,0.455,4.543,0.481,6.241,0.475
				c1.701-0.018,3.279-0.107,5.527-0.179c2.247-0.074,1.573-0.265-0.111-0.459c-1.684-0.188-4.367-0.413-6.136-0.603
				c-3.542-0.352-7.036-0.889-10.364-2.031c-1.61-0.541-3.392-1.403-5.106-2.574c-0.856-0.588-1.688-1.249-2.442-2.019
				c-0.166-0.166-0.329-0.336-0.491-0.508c0.288,0.168,0.589,0.336,0.908,0.5c0.005-0.014,1.555,0.973,3.938,1.821
				c0.595,0.211,1.244,0.408,1.93,0.572c0.687,0.168,1.42,0.281,2.134,0.37c1.447,0.181,2.919,0.236,4.267,0.249
				c1.348,0.01,2.46-0.028,3.445-0.065c0.982-0.039,1.842-0.075,2.684-0.132c0.841-0.058,1.656-0.131,2.54-0.246
				c0.883-0.117,1.837-0.269,2.935-0.55c1.098-0.294,1.442-0.521,1.325-0.557c-0.119-0.047-0.704,0.053-1.531,0.134
				c-0.827,0.084-1.898,0.136-2.984,0.123c-1.084-0.008-2.185-0.065-3.071-0.101c-3.569-0.175-7.134,0.042-10.534-0.493
				c-1.666-0.272-3.546-0.807-5.422-1.661c-0.937-0.425-1.873-0.93-2.768-1.517l-0.332-0.225l-0.367-0.256
				c-0.225-0.124-0.423-0.277-0.642-0.439c-0.425-0.324-0.84-0.678-1.229-1.047c-0.712-0.675-1.287-1.231-1.558-1.538l-0.036-0.089
				c-0.318-0.827-0.914-1.117-1.127-0.751c-0.127,0.225-0.139,0.679,0.115,1.421c-0.036,0.153-0.045,0.342-0.001,0.565
				c0.097,0.557,0.51,1.192,1.121,1.82c0.118,0.247,0.27,0.55,0.456,0.888c0.21,0.379,0.474,0.798,0.77,1.21
				c0.27,0.505,0.557,1.037,0.862,1.521c0.126,0.198,0.244,0.376,0.376,0.548l0.081,0.107c0.105,0.375,0.38,0.936,0.927,1.652
				c0.381,0.498,0.892,1.066,1.535,1.695c0.634,0.633,1.438,1.322,2.255,2.127c0.012-0.012,1.053,1.271,2.859,2.685
				C177.608,380.108,178.709,380.834,180.01,381.339z" style="opacity: 1;"></path>
			<path class="st1" d="M194.327,386.176c0.3-0.213,0.356-0.426,0.144-0.554c-0.212-0.129-0.679-0.175-1.471-0.167
				c-0.793,0.005-1.921,0.065-3.495,0.064c0.002-0.006-1.053-0.067-2.455-0.351l-0.539-0.118l-0.277-0.068
				c-0.158-0.041-0.253-0.046-0.351-0.067l-1.239-0.219c-0.834-0.152-1.673-0.32-2.428-0.51c-0.753-0.189-1.375-0.369-1.906-0.544
				l-1.51-0.511c-0.466-0.163-0.91-0.329-1.375-0.546c-0.461-0.218-0.953-0.481-1.429-0.897c-0.462-0.423-0.594-0.602-0.644-0.509
				c-0.041,0.086,0.058,0.447,0.369,0.88c0.306,0.436,0.811,0.918,1.367,1.332c0.557,0.416,1.158,0.772,1.65,1.029
				c0.498,0.255,0.968,0.489,1.512,0.704c0.526,0.207,1.062,0.379,1.602,0.523c1.079,0.289,2.167,0.472,3.239,0.639l0.408,0.06
				l0.37,0.047c0.277,0.056,0.591,0.109,0.895,0.149c0.616,0.083,1.259,0.134,1.918,0.161c1.319,0.053,2.697,0.023,4.097-0.071
				C193.481,386.586,194.029,386.388,194.327,386.176z" style="opacity: 1;"></path>
			<path class="st1" d="M320.152,347.525c0.37-0.312,0.73-0.632,1.087-0.952c0.366-0.307,0.73-0.635,1.074-0.97
				c1.381-1.345,2.511-2.834,3.431-4.336c0.492-0.796,0.409-0.949-0.09-0.669c-0.499,0.278-1.383,1.005-2.437,1.91
				c-0.529,0.452-1.103,0.945-1.711,1.438c-0.303,0.246-0.616,0.492-0.935,0.734l-0.513,0.379l-0.522,0.408
				c-1.333,1.037-2.71,2.023-3.934,2.803c-2.447,1.557-3.521,2.247-4.51,3.034c-0.987,0.792-1.918,1.662-3.982,3.787
				c-4.111,4.279-6.484,7.789-8.041,9.757c-0.781,0.987-2.173,2.831-3.563,4.943c-1.49,2.243-2.335,4.975-3.031,6.956
				c-0.73,1.992-1.212,5.143-2.37,7.726c-0.29,0.646-0.624,1.257-1,1.811l-1.258,1.803c-0.792,1.148-1.499,2.1-2.087,2.731
				c-1.831,2-3.173,2.896-4.124,3.565c-0.941,0.653-1.419,1.146-1.193,1.636c0.11,0.234,0.396,0.453,0.869,0.59
				c0.47,0.135,1.134,0.182,1.939,0.034c0.802-0.148,1.736-0.509,2.648-1.112c0.913-0.6,1.788-1.433,2.551-2.414
				c0.762-0.983,1.286-1.777,1.711-2.407l0.981-1.463l0.921-1.308c0.166-0.247,0.248-0.372,0.446-0.752
				c0.188-0.381,0.514-1.023,0.931-2.32l1.075-3.518c0.332-1.073,0.665-2.072,1.003-3.042c0.683-1.944,1.327-3.758,2.06-5.766
				c0.191-0.51,0.379-0.947,0.609-1.397l0.706-1.377c0.455-0.868,0.893-1.665,1.349-2.455c0.917-1.578,1.902-3.133,3.395-5.087
				c1.5-1.951,2.837-3.236,4.036-4.352c1.206-1.112,2.283-2.057,3.407-3.278c0.562-0.611,1.52-1.392,2.72-2.283
				c1.198-0.893,2.636-1.895,4.123-3.013C318.661,348.736,319.415,348.147,320.152,347.525z" style="opacity: 1;"></path>
			<path class="st1" d="M333.617,336.793c0.707,0.034,1.827-0.115,3.249-0.46c1.42-0.352,3.155-0.897,5.046-1.796
				c0.471-0.226,0.906-0.44,1.307-0.645l1.099-0.574c0.692-0.372,1.246-0.718,1.709-1.026c0.922-0.623,1.483-1.078,1.933-1.455
				c0.449-0.377,0.786-0.681,1.2-1.076c0.412-0.397,0.905-0.885,1.608-1.681c1.418-1.603,2.122-3.694,1.974-4.612
				c-0.069-0.464-0.331-0.645-0.802-0.4c-0.476,0.242-1.154,0.916-2.186,2.072c-1.044,1.147-1.62,1.644-1.892,1.914
				c-0.274,0.262-0.255,0.28-0.215,0.32c0.038,0.039,0.1,0.097-0.107,0.435c-0.213,0.329-0.673,0.971-1.833,1.994
				c-1.174,1.021-2.08,1.545-2.846,1.913c-0.79,0.395-1.341,0.587-1.929,0.777c-1.168,0.375-2.339,0.653-5.39,1.975
				c-1.53,0.668-2.378,1.253-2.649,1.659C332.62,336.535,332.911,336.761,333.617,336.793z" style="opacity: 1;"></path>
			<path class="st1" d="M387.478,296.594c-2.168,0.994-3.169,1.723-5.301,2.725c-1.068,0.503-1.897,0.7-2.671,0.897
				c-0.781,0.229-1.432,0.466-2.075,0.98c-0.63,0.505-2.138,0.982-3.602,1.988c-1.458,0.982-2.832,2.487-3.064,4.336
				c-0.109,0.977,0.46,0.492,1.36-0.339c0.897-0.839,2.221-1.985,3.393-2.463c1.164-0.476,1.675-0.593,2.137-0.827
				c0.467-0.22,0.872-0.554,1.946-1.156l0.388-0.211c0.113-0.064,0.234-0.127,0.383-0.19l0.825-0.366l1.486-0.666
				c0.898-0.401,1.617-0.702,2.178-0.847c1.12-0.292,4.11-1.063,6.064-1.039c0.977,0.008,2.402-0.329,3.807-0.634
				c1.403-0.313,2.789-0.584,3.627-0.587c1.311-0.006,2.2-0.224,2.765-0.584c0.562-0.352,0.795-0.85,0.722-1.348
				c-0.072-0.493-0.457-0.997-1.116-1.323c-0.657-0.328-1.59-0.481-2.69-0.27c-2.189,0.436-2.665,0.55-2.917,0.576
				c-0.244,0.04-0.251,0.031-1.389,0.45C391.49,296.547,389.667,295.605,387.478,296.594z" style="opacity: 1;"></path>
			<path class="st1" d="M364.665,314.133c0.257-0.279,0.491-0.434,0.733-0.577c0.496-0.287,1.007-0.512,2.106-1.549
				c1.119-1.049,0.888-1.746,0.005-1.824c-0.869-0.073-2.405,0.374-3.78,1.839c-1.347,1.488-1.748,2.236-2.044,2.708
				c-0.278,0.489-0.444,0.753-0.843,1.701c-0.4,0.963-0.105,2.105,0.425,2.541c0.262,0.227,0.572,0.294,0.879,0.154
				c0.309-0.14,0.608-0.487,0.923-1.076c0.318-0.587,0.51-0.848,0.588-0.99c0.081-0.139,0.056-0.152,0.007-0.175
				c-0.051-0.026-0.126-0.06-0.139-0.251c-0.009-0.19,0.035-0.542,0.313-1.181C364.122,314.814,364.411,314.412,364.665,314.133z" style="opacity: 1;"></path>
			<path class="st1" d="M306.45,327.92L306.45,327.92c0,0.163,0,0.354,0,0.582l0,0l0.008,0.006l0.015,0.009
				c0.044,0.028,0.095,0.051,0.155,0.07c0.118,0.039,0.271,0.061,0.461,0.061c0.759,0,1.246,0,1.654,0.045l0.148,0.018
				c0.051,0.008,0.142,0.014,0.198,0.017c0.101,0.01,0.199,0.023,0.3,0.042c0.2,0.036,0.408,0.078,0.65,0.141
				c0.483,0.125,1.331,0.081,2.149-0.143c0.819-0.22,1.58-0.616,1.933-0.971c0.358-0.346,1.324-0.733,2.28-1.172
				c0.959-0.435,1.912-0.863,2.361-1.15c0.453-0.294,1.102-0.817,1.795-1.324c0.38-0.256,0.738-0.583,1.058-0.832
				c0.311-0.254,0.593-0.474,0.818-0.634c0.884-0.637,2.405-1.246,4.315-3.781c0.21-0.285,0.485-0.637,1.027-1.216
				c0.27-0.291,0.607-0.638,1.03-1.068l0.701-0.71l0.403-0.408c0.146-0.15,0.297-0.312,0.445-0.487
				c0.299-0.35,0.624-0.956,0.868-1.547c0.248-0.59,0.44-1.161,0.591-1.45c0.152-0.287,0.645-0.893,1.091-1.588
				c0.451-0.707,0.858-1.436,0.977-2.281c0.064-0.427,0.034-0.629-0.115-0.654c-0.146-0.027-0.404,0.123-0.675,0.388
				c-0.566,0.528-1.077,1.492-1.398,2.084c-0.331,0.596-0.655,1.048-1.004,1.53c-0.35,0.48-0.712,0.992-1.132,1.632
				c-0.21,0.321-0.461,0.652-0.739,0.956c-0.126,0.136-0.322,0.324-0.497,0.498l-0.535,0.52c-0.708,0.68-1.377,1.281-1.775,1.631
				c-0.79,0.707-2.106,1.773-2.612,2.16c-0.506,0.39-1.213,0.496-2.217,1.645c-0.5,0.57-0.869,0.929-1.215,1.215
				c-0.177,0.15-0.364,0.287-0.593,0.419l-0.843,0.514c-1.343,0.814-3.593,2.862-5.127,3.495c-0.758,0.335-1.538,0.6-2.448,0.79
				c-0.454,0.096-0.942,0.169-1.472,0.219c-0.132,0.015-0.269,0.022-0.406,0.032c-0.079,0.005-0.123,0.01-0.176,0.009h-0.224h-0.936
				c-0.327,0-0.624,0.09-0.864,0.222c-0.108,0.059-0.2,0.127-0.281,0.199c0.038-0.132,0.021-0.257-0.064-0.357l-0.047-0.048
				l-0.028-0.022l-0.004-0.002l-0.002-0.002l0,0c0,0.107,0,0.302,0,0.627V327.92z" style="opacity: 1;"></path>
			<path class="st1" d="M306.45,327.257v-0.035V327.257z" style="opacity: 1;"></path>
			<path class="st1" d="M306.45,327.222L306.45,327.222C306.45,327.018,306.45,327.12,306.45,327.222z" style="opacity: 1;"></path>
			<path class="st1" d="M306.45,327.921c0,0.042,0,0.028,0-0.001V327.921L306.45,327.921z" style="opacity: 1;"></path>
			<path class="st1" d="M322.549,328.492c1.443-0.315,1.829-0.461,2.753-0.393c0.461,0.028,1.207-0.156,1.895-0.468
				c0.693-0.308,1.323-0.739,1.608-1.1c0.288-0.357,1.149-0.757,2.035-1.205c0.884-0.446,1.794-0.937,2.203-1.282
				c0.411-0.342,0.997-0.97,1.542-1.623c0.275-0.326,0.539-0.657,0.778-0.954c0.235-0.294,0.433-0.542,0.617-0.726
				c0.355-0.363,0.865-0.778,1.426-1.447c0.562-0.668,1.188-1.617,1.682-3.039c0.107-0.319,0.256-0.715,0.565-1.397l0.587-1.267
				l0.395-0.85l0.221-0.491c0.045-0.101,0.05-0.111,0.109-0.209l0.156-0.271c0.212-0.371,0.398-0.988,0.517-1.575
				c0.12-0.59,0.186-1.151,0.269-1.445c0.083-0.292,0.428-0.941,0.676-1.678c0.248-0.745,0.422-1.538,0.201-2.321
				c-0.109-0.395-0.225-0.555-0.366-0.53c-0.14,0.022-0.305,0.225-0.453,0.527c-0.308,0.602-0.51,1.561-0.666,2.159
				c-0.331,1.187-0.814,1.906-1.345,3.222c-0.138,0.327-0.308,0.678-0.514,1.017l-0.072,0.117c-0.03,0.047-0.053,0.101-0.077,0.153
				l-0.082,0.178l-0.146,0.313l-0.299,0.616c-0.403,0.805-0.808,1.52-1.06,1.932c-0.483,0.839-1.374,2.093-1.736,2.541
				c-0.366,0.456-0.969,0.669-1.635,1.889c-0.739,1.272-0.972,1.551-1.989,2.485c-0.505,0.462-1.229,1.195-2.029,1.888
				c-0.796,0.697-1.674,1.346-2.365,1.726c-1.383,0.746-2.822,1.431-5.111,1.995c-0.569,0.139-0.988,0.568-1.106,0.949
				C321.614,328.305,321.823,328.637,322.549,328.492z" style="opacity: 1;"></path>
			<path class="st1" d="M349.262,301.306c-0.09,0.592-0.102,2.001-0.331,2.598c-0.104,0.297-0.317,0.619-0.522,1.093
				c-0.206,0.477-0.396,1.104-0.528,2.062c-0.03,0.214-0.08,0.484-0.27,0.921c-0.191,0.434-0.519,1.041-1.154,1.879
				c-0.31,0.418-0.719,1.457-0.995,1.753c-0.134,0.149-0.577,0.376-0.967,0.707c-0.392,0.336-0.731,0.781-0.674,1.446
				c0.097,1.341,1.103-0.027,1.673-0.632c0.574-0.598,1.218-0.769,1.934-1.646c0.72-0.868,1.67-2.277,2.019-2.896
				c0.371-0.605,0.891-1.618,1.064-2.01c0.174-0.383,0.691-0.645,0.709-1.716c-0.007-1.063,0.071-1.319,0.307-2.283
				c0.112-0.482,0.169-1.23,0.166-1.991c0-0.759-0.06-1.527-0.067-2.082c-0.022-1.112-0.106-2.233-0.513-3.854
				c-0.103-0.408-0.548-0.637-0.919-0.639c-0.373-0.002-0.676,0.2-0.551,0.625c0.236,0.855,0.275,1.119,0.016,1.667
				c-0.25,0.549-0.147,1.722,0.197,2.219c0.183,0.246,0.088,0.815-0.095,1.375C349.584,300.464,349.316,301.009,349.262,301.306z" style="opacity: 1;"></path>
			<path class="st1" d="M370.011,266.232c0.295-0.885,5.603-2.949,7.372-2.654c1.769,0.294,4.719-2.654,5.013-5.307
				c0.295-2.656,2.949-5.603,2.654-6.488c-0.294-0.885-2.949-5.898-2.949-7.077c0-1.179,3.244-8.255,3.834-9.436
				c0.59-1.179,0.294-4.423-1.475-5.898c-1.769-1.474-1.769-4.128-1.769-6.192c0-2.064-2.064-2.064-2.064,2.654
				c0,4.718-2.064,13.86-2.064,17.103c0,3.243-1.77,6.487-1.18,9.436c0.59,2.949,1.769,3.243,0,5.013
				c-1.769,1.769-3.833,4.423-5.897,4.718c-2.064,0.295-4.718,2.064-8.551,0.59c-3.834-1.473-5.013-0.294-8.552,0.885
				c-3.539,1.179-9.731,2.948-12.68,3.243c-2.948,0.295-4.128,0.295-4.128,2.949c0,2.654,2.064,1.473,0,2.654
				c-2.063,1.179-0.294,0.589-2.063,1.179c-1.77,0.59-4.129,0.295-4.129,0.295s-1.179,1.475-2.063,2.358
				c-0.885,0.885-2.36,2.949-4.718,3.243c-2.359,0.295-5.309,0.591-5.309,0.591c2.36,1.768,2.949,3.833,5.603,2.948
				c2.654-0.884,7.962-1.18,9.731-1.769c1.769-0.59,5.012-1.475,4.718-2.949c-0.294-1.473,0.294-3.243,1.769-3.243
				c1.475,0,2.36-1.771,1.77-2.949c-0.59-1.179-1.475-3.243,0.59-2.654c2.064,0.59,6.192,0.59,8.846-1.179
				c2.654-1.769,6.488-4.129,9.731-2.654C365.293,267.117,369.717,267.117,370.011,266.232z" style="opacity: 1;"></path>
			<path class="st1" d="M381.806,213.155c0,0,0,8.551,1.769,7.371c1.769-1.18,1.18-2.064,0.885-3.538
				c-0.295-1.475-1.179-7.077-0.885-9.14C383.869,205.784,380.627,209.026,381.806,213.155z" style="opacity: 1;"></path>
			<path class="st1" d="M374.139,169.218c3.833,2.064,3.833,5.602,6.191,9.141c2.36,3.538,2.361,2.064,4.424,2.653
				c2.064,0.591-0.59,7.962-0.884,10.322c-0.296,2.358-3.261,5.068-2.36,10.025c0.59,3.243,2.949,0,3.833-2.359
				c0.885-2.358,1.77-3.539,3.834-4.719c2.064-1.179,2.064-3.243,2.064-5.013c0-1.769-0.295-1.769-1.77-2.064
				c-1.473-0.294-0.294-1.769,1.475-2.654c1.769-0.884,0.295-2.358-1.475-4.127c-1.769-1.77-2.064-2.36-3.538-2.064
				c-1.475,0.294-1.77-0.885-3.243-2.655c-1.474-1.769-2.361-5.897-3.834-7.962c-1.475-2.064-5.307-1.474-8.551-2.359
				C367.063,164.5,370.306,167.153,374.139,169.218z" style="opacity: 1;"></path>
			<path class="st1" d="M360.575,174.819c2.36,1.769,2.654,2.655,4.127,3.834c1.475,1.179,1.475,0,4.424-2.36
				c2.949-2.358,2.36-2.653,2.064-3.832c-0.294-1.179-2.654,0-4.128,2.064c-1.475,2.064-2.948,2.064-5.012-0.885
				C362.05,173.64,358.216,173.051,360.575,174.819z" style="opacity: 1;"></path>
			<path class="st1" d="M452.872,402.612c-0.275-0.275-0.497-0.425-0.69-0.504c0.475-0.577,0.986-1.413,0.986-1.413
				s1.179-1.326,0.147-1.622c-1.032-0.294-0.738,0.148-1.622-1.032c-0.885-1.179-2.802-3.096-5.455-4.128
				c-2.655-1.032-11.354-2.948-14.449-1.917c-3.097,1.033-2.655,1.623-3.097,1.033c-0.443-0.591-1.768-1.327-2.801-1.918
				c-1.032-0.589-6.044-0.146-6.929,0c-0.942,0.158-1.888,0.657-2.246,1.084c-0.064-0.478-0.397-0.795-0.85-0.493
				c-0.885,0.59-2.36,0.59-5.16,2.949c-2.801,2.358-3.687,3.243-7.077,4.128c-3.39,0.884-5.949,1.187-7.667,0.442
				c-1.717-0.746-3.685-1.327-3.539-0.442c0.22,1.316,5.013,7.076,7.962,7.223c2.949,0.148,5.898-5.897,7.372-6.781
				c1.475-0.885,3.244,0.147,4.424-1.18c1.179-1.326,2.654-3.686,3.833-4.424c0.372-0.232,0.582-0.568,0.668-0.899
				c0.134,0.1,0.388,0.162,0.806,0.162c2.064,0,3.981-1.622,6.782-0.294c2.801,1.326,5.602,3.243,6.34,3.096
				c0.738-0.148,1.326-1.18,1.326-1.18s13.27-1.473,16.514,2.36c2.851,3.37,2.853,4.461,2.913,5.276
				c-0.308,0.105-0.627,0.207-1.145-0.116c-1.179-0.738-3.387-3.404-4.865-4.719c-1.327-1.18-2.064,0.148-0.738,1.033
				c1.327,0.885,1.769,2.211,2.064,3.39c0.286,1.142-0.949,2.007-2.098,2.73c-0.91-2.054-2.921-3.249-4.832-4.205
				c-0.885-0.443-0.738,1.77,0.59,2.949c1.326,1.179,1.622,1.179,2.507,2.801c0.885,1.623-0.59,2.949-1.917,2.507
				c-1.326-0.442-2.36-2.064-3.539-3.686c-1.179-1.622-1.475,0.295-0.737,1.475c0.737,1.18,1.473,2.064,1.473,2.948
				c0,0.885-1.031,0.148-1.769,0c-0.738-0.146,0.148,1.18,2.064,2.065c1.917,0.884,2.949,0.884,3.981,0.884
				c1.032,0,1.032-0.294,1.916-1.179c0.831-0.829,1.012-1.401,0.788-4.148c0.225,0.221,0.429,0.388,0.54,0.462
				c0.442,0.295,2.064-0.147,2.949-0.737c0.885-0.591,1.622-0.738,2.358-1.328c0.737-0.59,1.033-0.147,2.36,0.443
				C454.64,406.298,454.199,403.938,452.872,402.612z" style="opacity: 1;"></path>
			<path class="st1" d="M432.083,406.151c0,0-1.917-0.148-0.737,1.032c1.179,1.179,0.884,2.654,0.147,3.539
				c-0.668,0.8-1.475-0.591-3.539-1.917c-2.064-1.327-2.358-0.442-4.275-0.442c-1.917,0-3.833,1.769-6.045,3.096
				c-2.211,1.328-2.211,1.622-2.654,3.243c-0.442,1.622,0.442,1.622,1.917,0.737c1.473-0.884,2.949-2.948,6.34-4.127
				c3.392-1.18,6.487,2.064,7.961,2.506c1.476,0.442,1.622-0.591,3.243-0.884C436.064,412.637,433.704,407.625,432.083,406.151z" style="opacity: 1;"></path>
			<path class="st1" d="M412.179,417.503c0,0,0,0.885-0.443,0.738c-0.442-0.147-2.064,0-2.064,1.622
				c0,1.622-0.59,1.326-1.18,1.917c-0.59,0.589-3.391,2.507-4.717,3.686c-1.327,1.179-3.392,2.358-6.783,3.392
				c-3.392,1.032-3.243,0.147-3.538-1.77c-0.295-1.916-3.097-3.833-5.309-6.044c-2.211-2.212-5.75-3.54-7.667-5.751
				c-1.916-2.211-0.884,1.917,1.18,3.244c2.064,1.326,4.865,5.013,5.897,6.634c1.032,1.623,0.885,3.834,2.949,5.16
				c2.064,1.327,1.179-0.147,1.77,0.295c0.59,0.442,1.474,1.917,3.685,3.096c2.211,1.179,2.211,0,6.045-1.622
				c3.834-1.622,4.571-2.507,6.193-4.424c1.622-1.916,1.622-1.916,2.064-2.801c0.443-0.885,0.443-0.885,2.211-1.917
				c1.769-1.032,1.328-0.886,1.769-2.211c0.443-1.327,0.148-1.327,0.443-2.949C414.98,416.177,412.769,416.176,412.179,417.503z" style="opacity: 1;"></path>
			<path class="st1" d="M320.57,344.68c2.852-2.96,9.674-6.895,12.325-8.554c2.649-1.659,7.335-2.664,5.271-0.009
				c-2.064,2.654-2.064,2.358-4.423,3.538c-2.36,1.18-5.013,2.36-7.077,4.128c-2.064,1.77-5.603,3.834-6.782,5.013
				c-1.179,1.179,0.885,2.064-2.064,3.243c-2.949,1.18-8.552,3.834-11.206,5.898C303.959,360.003,320.57,344.68,320.57,344.68z" style="opacity: 1;"></path>
			<path class="st1" d="M351.729,357.939c-1.769,0.294-5.013,2.358-7.077,2.064c-2.063-0.295-3.538-0.59-5.308,0
				c-1.769,0.59-2.652,0.884-4.718,1.473c-2.064,0.591-4.128,0.591-7.667,1.77c-3.538,1.179-3.243,2.064-5.602,1.474
				c-2.359-0.589-4.298-4.76-5.307-6.488c-1.01-1.727-2.064-3.538,2.654-2.358c4.718,1.179,7.85,1.122,11.74,0.266
				C334.332,355.284,351.729,357.939,351.729,357.939z" style="opacity: 1;"></path>
			<path class="st1" d="M275.652,408.657c-2.949-0.295-1.77-3.244-0.295-4.719c1.475-1.473,1.769,0.295,3.243,0.885
				c1.475,0.59,12.386-1.475,17.988-4.128c5.602-2.654,13.859-2.358,12.385-1.769c-1.475,0.59-10.321,3.243-13.27,4.718
				c-2.949,1.474-3.538,2.358-5.602,2.949c-2.065,0.59-2.064,0-4.128,0.59c-2.064,0.59-4.719,1.475-5.604,1.769
				C279.485,409.246,275.652,408.657,275.652,408.657z" style="opacity: 1;"></path>
			<path class="st1" d="M159.471,440.504c2.131,0.251,3.833-0.886,4.717-0.886c0.885,0,3.834-0.883,5.898-1.474
				c2.064-0.59,5.308-0.294,7.372-0.294c2.064,0,4.128-0.295,6.193,0.59c2.064,0.884,3.834,2.949,0.295,2.36
				c-3.539-0.591-3.539,0-6.782-0.295c-3.245-0.296-7.963,0.295-10.027,0.59c-2.064,0.295-2.064,0-4.718,1.179
				c-2.654,1.18-2.36,1.18-4.424,2.064c-2.063,0.885-5.897,3.245-5.307,1.77C153.278,444.632,154.458,439.913,159.471,440.504z" style="opacity: 1;"></path>
			<path class="st1" d="M189.842,442.568c-1.475-0.295-1.77-2.948,0.885-1.769c2.654,1.179,2.654,0.59,7.076,3.833
				c4.424,3.243,10.322,4.128,14.449,4.128c4.128,0,19.167-3.244,22.706-5.602c3.539-2.358,7.667-5.013,8.846-6.192
				c1.179-1.179,0.591,2.359-1.179,3.834c-1.77,1.473-2.949,3.243-4.422,3.833c-1.476,0.59-2.949,0.59-3.54,1.475
				c-0.59,0.885-2.948,2.653-2.948,2.653s-2.359,1.18-3.539,1.475c-1.179,0.294-2.654,1.179-3.539,2.064
				c-0.884,0.885-2.064,0.885-2.949,0.885c-0.884,0-1.473-0.885-3.243-0.885c-1.769,0-4.718-0.885-6.192,0
				c-1.475,0.885,0.59,3.539-2.948,2.358c-3.539-1.179-0.591,0-3.539-1.179c-2.949-1.179-4.718-2.358-5.603-2.064
				c-0.885,0.294-3.243,0.885-3.243-0.885c0-1.769,0.59-2.358-1.179-3.243c-1.77-0.885-2.655-1.179-4.424-1.474
				C189.548,445.516,189.842,442.568,189.842,442.568z" style="opacity: 1;"></path>
			<path class="st1" d="M173.624,417.798c-2.949-0.59-2.949-3.539-6.782-1.475c-3.834,2.064,0.59,2.064-3.834,2.064
				c-4.423,0-3.537,1.18-7.076-2.654c-3.539-3.833-5.898-7.076-10.91-5.603c-5.013,1.475-5.309,5.603-7.373,7.962
				c-2.063,2.358-4.128,6.193-2.654,6.782c1.475,0.59,2.949-0.59,4.128-2.654c1.179-2.064,4.424-6.192,7.078-8.257
				c2.654-2.064,3.539-0.589,4.422,1.474c0.885,2.064,3.245,3.539,4.128,2.949c0.885-0.59,0.591,0.295,2.655,2.359
				c2.064,2.064,5.602,2.064,6.193,1.179c0.588-0.884,1.473,0.885,3.537-0.589c2.064-1.475,2.949-3.243,3.834-2.654
				C171.856,419.272,173.624,417.798,173.624,417.798z" style="opacity: 1;"></path>
			<path class="st1" d="M157.407,432.836c-0.885-2.065,0.59-5.897,2.064-3.537c1.473,2.358,0,5.307-0.295,7.961
				c-0.295,2.653-2.36,6.487-5.012,9.14c-2.655,2.654-2.655,6.192-3.54,7.962c-0.884,1.769-2.653,2.358-2.653,2.358
				c-3.539,1.475-3.834,2.36-5.898,4.128c-2.064,1.77-1.475,2.949-3.539,2.064c-2.064-0.885-3.539-1.475-5.012-1.475
				c-1.475,0-3.539-1.473-7.077,1.475c-3.539,2.949-4.424,3.538-7.372,4.128c-2.949,0.59-3.834,0.885-7.667-0.295
				c-3.834-1.179-3.539-2.654-6.193-5.898c-2.654-3.243-0.295-5.307-0.295-5.307s-2.358-1.475-2.064-3.243
				c0.295-1.77,0.885-4.424,1.77-4.424c0.884,0,1.769,0.589,1.769,3.244c0,2.653,2.654,3.833,1.475,5.012
				c-1.179,1.179,0.59-0.294,0.59,2.064c0,2.359-0.59,2.654,1.769,4.718c2.36,2.064,5.309,3.538,7.962,1.77
				c2.654-1.77,5.307-2.655,8.257-4.424c2.949-1.769,5.898-2.654,8.257-1.179c2.358,1.474,6.192,0.885,6.782-1.475
				c0.59-2.36,2.654-3.243,3.833-2.949c1.179,0.295,2.064-0.59,2.655-2.064c0.588-1.473,1.769-3.833,2.653-5.307
				c0.885-1.474,5.898-7.667,5.898-8.551C156.522,437.85,157.407,432.836,157.407,432.836z" style="opacity: 1;"></path>
			<path class="st1" d="M132.931,427.529c1.133,1.36,2.064,6.782-4.718,12.678c-6.782,5.899-9.731,3.539-6.487,2.656
				c3.243-0.885,5.603-3.54,6.487-5.013c0.885-1.474,3.244-3.539,2.654-6.193C130.277,429.004,131.458,425.76,132.931,427.529z" style="opacity: 1;"></path>
			<path class="st1" d="M121.431,447.285c-0.834-2.085-3.539-4.718-0.885-5.897c2.654-1.181,3.245,0.59,4.424,0.59
				c1.179,0,6.192-1.474,3.243-1.771c-2.948-0.294-3.539,0-5.897-0.884c-2.36-0.884-2.654,0.884-4.718,2.065
				c-2.064,1.179-2.359,3.243-1.18,4.127c1.18,0.885,2.655,2.949,3.243,3.834C120.252,450.235,122.021,448.76,121.431,447.285z" style="opacity: 1;"></path>
			<path class="st1" d="M117.892,451.708c-4.139,0-5.897,0-7.076-2.358c-1.179-2.358-2.359-5.013-2.655-2.654
				c-0.294,2.358,0,4.718,1.18,5.603c1.179,0.885,1.475,1.473,3.833,1.179c2.359-0.294,4.424,0.885,5.898-0.294
				c1.473-1.18,0-1.18,0-1.18S119.367,451.708,117.892,451.708z" style="opacity: 1;"></path>
			<path class="st1" d="M111.406,443.157c1.866-1.018,2.358,0.295,2.063,1.475c-0.294,1.179,0.886-0.295-0.294,1.179
				c-1.179,1.474-2.064,4.424-2.358,3.539C110.521,448.464,108.162,444.927,111.406,443.157z" style="opacity: 1;"></path>
			<path class="st1" d="M177.753,420.452c-4.128,0.295-3.243-3.243,0.295-3.833c3.538-0.589,5.307-0.295,7.076-0.885
				c1.769-0.59,0.884,0.59-1.475,1.769C181.292,418.683,177.753,420.452,177.753,420.452z" style="opacity: 1;"></path>
			<path class="st1" d="M190.727,416.619c-3.243,0.296-2.655-1.769-0.59-2.359c2.064-0.59,3.833-0.59,4.718-0.59
				c0.885,0,0.59,1.181-1.77,2.065C190.727,416.619,190.727,416.619,190.727,416.619z" style="opacity: 1;"></path>
			<path class="st1" d="M200.163,412.195c2.398-0.398,5.012-3.243,7.372-3.833c2.359-0.59,1.475,0.885-1.179,2.36
				c-2.654,1.473-5.013,3.538-7.077,3.833C197.214,414.85,198.395,412.49,200.163,412.195z" style="opacity: 1;"></path>
			<path class="st1" d="M217.266,387.72c-0.59,2.359-1.769,9.142-4.718,12.09c-2.949,2.949-4.128,3.539-5.603,5.308
				c-1.475,1.769-2.654,5.898-4.718,6.487c-2.064,0.589-0.885-0.59,0.59-3.539c1.474-2.949,2.654-4.423,5.603-6.487
				c2.949-2.064,3.539-2.358,5.013-5.897c1.473-3.539,1.474-3.834,1.769-6.488C215.497,386.541,217.856,385.362,217.266,387.72z" style="opacity: 1;"></path>
			<path class="st1" d="M271.818,344.374c4.128-1.18,5.602-3.539,8.551-4.718c2.949-1.18,3.539-2.948,4.719-3.539
				c1.179-0.59-0.591-2.654-2.359-1.18c-1.769,1.474-1.77,2.95-5.897,3.834C272.703,339.656,271.818,344.374,271.818,344.374z" style="opacity: 1;"></path>
			<path class="st1" d="M288.331,336.412c4.07-0.903,9.142-0.884,11.206,0c2.063,0.885,3.538,1.18,5.307,1.476
				c1.769,0.294,3.538-1.77,4.717,1.769c1.18,3.538,1.475,5.897,2.655,5.012c1.179-0.884,2.064-1.769,2.358-4.423
				c0.295-2.654,2.655-6.782,0.885-6.782c-1.769,0-5.307,0.294-6.192,0.589c-0.885,0.295-2.064,0-3.833-0.589
				c-1.77-0.59-1.77-1.181-3.539-0.59c-1.77,0.59-3.834,0.295-6.193,0.59c-2.358,0.294-1.769,0.294-4.128,0.589
				c-2.36,0.295-1.769,0.884-3.834,0.884C285.676,334.938,285.676,337.003,288.331,336.412z" style="opacity: 1;"></path>
			<path class="st1" d="M297.177,326.091c1.769,0.591,5.897-1.473,9.731-5.896c3.833-3.245,4.128-1.77,2.948-0.295
				c-1.179,1.475-7.076,5.602-8.846,7.076c-1.769,1.475-1.179,2.36-3.539,2.064C295.113,328.746,294.524,325.207,297.177,326.091z" style="opacity: 1;"></path>
			<path class="st1" d="M354.973,230.257c-0.484,2.909-2.654,8.257-8.257,10.615c-5.603,2.36-0.59-2.949,1.77-4.128
				c2.358-1.179,4.128-2.948,4.128-2.948s0.884-1.77,1.179-4.128C354.087,227.308,355.268,228.489,354.973,230.257z" style="opacity: 1;"></path>
			<path class="st1" d="M393.012,226.423c4.422,3.834,14.743,2.359,27.422,16.513c3.539,3.243,6.488,2.359,6.192,4.128
				c-0.294,1.77-1.474,3.245-1.179,4.718c0.295,1.474,0.295,7.077,0,8.552c-0.295,1.475,0,9.731-2.064,12.09
				c-2.064,2.36-1.473,5.309-3.833,5.897c-2.36,0.591-3.834,0.591-3.834,0.591s-2.064,2.358-2.654,3.243
				c-0.59,0.886-1.769,1.475-1.769,1.475s-0.295-2.949-5.897-3.834c-5.604-0.884-3.54,0.295-8.847-1.769
				c-5.308-2.064-4.718-4.719-5.897-5.898c-1.179-1.179,2.358-1.474,5.308,0.59c2.949,2.065,5.013,0.884,2.949,2.065
				c-2.064,1.179-2.36,0.885,1.474,1.473c3.833,0.591,8.551,2.064,9.436,2.655c0.885,0.59,2.064-2.064,0.59-4.128
				c-1.475-2.065-0.001-3.834,1.475-2.065c1.475,1.769,3.539,2.654,4.128,1.18c0.59-1.475,1.474-2.654,0.294-5.013
				c-1.179-2.358,0.591-3.537,1.474-1.474c0.885,2.065,1.77,2.654,2.36,1.77c0.59-0.885,3.243-10.321,2.654-12.385
				c-0.59-2.064-1.475-1.475-3.243-2.654c-1.77-1.179-2.065-3.539-2.065-3.539c-2.064-0.59-2.064-2.358-1.769-3.833
				c0.295-1.475,0.295-4.424-0.59-4.719c-0.885-0.294-8.982-6.224-10.321-7.076c-3.243-2.064-3.243-0.884-4.128-0.59
				c-0.885,0.294-2.064,0.59-3.243,0.885c-1.179,0.294-1.474,2.064-2.359,0.294c-0.884-1.77-2.36-3.539-2.654-4.423
				c-0.294-0.885-1.475-4.719-1.769-5.603C390.357,224.655,393.012,226.423,393.012,226.423z" style="opacity: 1;"></path>
			<path class="st1" d="M390.357,253.553c-1.769-1.475-0.59-3.243,1.179-2.949c1.77,0.295,2.359-2.654,3.834-2.948
				c1.475-0.295,2.654,0.884,3.243,0c0.591-0.885-1.769-0.591,0.591-0.885c2.358-0.296,4.127,2.358,5.012,4.128
				c0.885,1.769-0.294,6.192-1.475,7.666c-1.179,1.476-0.885,2.359-2.949,2.949c-2.064,0.59,0,0-2.064,0.59
				c-2.063,0.59-4.128-0.294-4.128-1.475c0-1.179,0.885-1.769,0-2.949C392.717,256.501,390.357,253.553,390.357,253.553z" style="opacity: 1;"></path>
			<path class="st1" d="M405.986,284.22c-1.22,1.017-2.654,2.949-5.307,1.769c-2.654-1.179-6.782-6.193-6.782-6.193
				s0,2.359,0.885,4.424c0.885,2.064,3.833,3.833,0.885,3.538c-2.949-0.294-4.718-1.769-7.373-4.423
				c-2.654-2.654-5.602-6.487-4.718-3.833c0.885,2.653,1.769,7.667,3.833,7.961c2.065,0.294,6.783,1.475,8.847,2.36
				c2.064,0.883,3.538,1.769,5.012,0.295c1.474-1.476,2.655,0,4.129-2.065C406.871,285.988,407.756,282.745,405.986,284.22z" style="opacity: 1;"></path>
			<path class="st1" d="M330.879,398.005c-1.633-0.4-2.667-0.943-4.886-1.358c-1.108-0.203-2.5-0.427-3.795-0.595
				c-1.293-0.171-2.486-0.287-3.19-0.349c-1.405-0.132-3.665-0.235-4.513-0.239c-0.414-0.009-0.876-0.082-1.39-0.124
				c-0.521-0.045-1.176-0.079-2.144-0.014c-0.972,0.064-1.612,0.076-2.252,0.071c-0.641-0.002-1.285-0.045-2.309-0.015
				c-0.257,0.01-0.542,0.03-0.862,0.069c-0.332,0.038-0.657,0.111-0.994,0.18c-0.675,0.145-1.399,0.331-2.122,0.52
				c-1.444,0.379-2.905,0.732-3.992,0.826c-1.125,0.119-2.231,0.299-3.466,0.498c-1.232,0.195-2.594,0.426-4.224,0.557
				c-0.812,0.065-1.483,0.369-1.728,0.663c-0.246,0.293-0.036,0.604,0.967,0.566c1.992-0.117,2.54-0.233,3.7-0.093
				c0.58,0.065,1.561-0.023,2.512-0.174c0.952-0.152,1.875-0.352,2.396-0.553c0.127-0.052,0.309-0.088,0.532-0.129
				c0.229-0.042,0.488-0.077,0.762-0.114l1.85-0.215c1.302-0.152,2.599-0.277,3.251-0.381l0.54-0.098
				c0.1-0.021,0.184-0.029,0.286-0.047l0.332-0.042c0.456-0.058,0.974-0.099,1.504-0.118c1.059-0.039,2.166,0.002,2.862,0.061
				c0.697,0.057,1.535,0.217,2.744,0.232c1.147,0.001,2.562-0.051,4.508-0.211c0.433-0.035,0.989-0.071,1.985-0.03
				c0.996,0.044,2.437,0.157,4.622,0.512c1.09,0.168,3.322,0.305,4.136,0.493c0.406,0.09,1.322,0.446,2.351,0.746
				c1.032,0.299,2.179,0.544,3.107,0.36C335.828,399.098,332.518,398.393,330.879,398.005z" style="opacity: 1;"></path>
			<path class="st1" d="M334.904,397.012c-0.861-0.527-1.289-1.131-2.473-1.795c-1.179-0.672-3.005-1.589-3.784-1.939
				c-0.772-0.364-2.035-0.892-2.517-1.074c-0.478-0.181-0.864-0.655-2.108-0.747c-1.242-0.073-1.564-0.166-2.741-0.433
				c-0.589-0.13-1.495-0.222-2.423-0.248c-0.931-0.029-1.879,0.021-2.567,0.044c-1.368,0.069-2.78,0.199-4.73,0.962
				c-0.49,0.195-0.749,0.661-0.74,0.986c0.007,0.329,0.251,0.526,0.747,0.295c1.009-0.439,1.337-0.509,2.005-0.389
				c0.336,0.066,0.868,0.026,1.398-0.044c0.529-0.073,1.06-0.177,1.368-0.336c0.309-0.158,1.03-0.094,1.749,0.076
				c0.722,0.164,1.439,0.421,1.826,0.489c0.387,0.067,1.022,0.117,1.661,0.2c0.638,0.082,1.279,0.194,1.665,0.316
				c0.778,0.255,1.733,0.852,4.065,1.237c0.519,0.098,1.34,0.243,3.681,1.492c0.584,0.31,1.885,0.714,2.314,0.973
				c0.439,0.253,1.676,1.703,2.991,1.508C337.618,398.393,335.768,397.535,334.904,397.012z" style="opacity: 1;"></path>
			<path class="st1" d="M358.776,405.103c-1.376-0.856-2.15-1.651-3.88-2.846c-0.866-0.607-1.894-1.388-2.802-2.201
				c-0.509-0.446-0.92-0.77-1.281-1.126c-0.363-0.345-0.668-0.659-0.893-0.896c-0.897-0.939-2.319-2.591-2.907-3.196
				c-0.286-0.302-0.525-0.657-0.909-1.08c-0.386-0.419-0.919-0.921-1.83-1.417l-2.041-1.04c-0.584-0.287-1.158-0.577-2.077-0.943
				c-0.92-0.368-2.343-0.734-3.793-1.001c-1.45-0.272-2.926-0.483-3.979-0.709l-0.789-0.17l-0.427-0.096l-0.424-0.054
				c-0.53-0.077-1.078-0.188-1.658-0.328c-1.163-0.275-2.444-0.691-4.059-1.069c-0.812-0.187-1.557,0.008-1.82,0.276
				c-0.264,0.272-0.096,0.562,0.791,0.715c0.894,0.171,1.472,0.331,1.946,0.491c0.475,0.167,0.842,0.346,1.328,0.633
				c0.484,0.285,1.398,0.619,2.388,0.816c0.247,0.049,0.498,0.087,0.746,0.116c0.124,0.012,0.246,0.026,0.367,0.032
				c0.06,0.003,0.138,0.01,0.119,0.003l0.014-0.003l0.081,0.012c0.429,0.06,0.808,0.085,1.09,0.07
				c0.563-0.03,1.746,0.281,2.926,0.654c1.184,0.372,2.341,0.835,2.951,1.03c0.614,0.19,1.607,0.447,2.539,0.819
				c0.467,0.183,0.92,0.393,1.311,0.612c0.191,0.103,0.388,0.23,0.566,0.344c0.188,0.112,0.348,0.214,0.47,0.302
				c0.512,0.364,1.055,0.895,1.818,1.637c0.767,0.74,1.736,1.73,3.233,2.958c0.338,0.272,0.754,0.631,1.498,1.292
				c0.371,0.326,0.838,0.738,1.428,1.195c0.554,0.47,1.26,1.069,2.128,1.724c0.865,0.679,2.841,1.633,3.528,2.056
				c0.686,0.445,2.911,2.472,4.741,2.622c0.924,0.082,0.669-0.269,0-0.748C360.546,406.108,359.467,405.527,358.776,405.103z" style="opacity: 1;"></path>
			<path class="st1" d="M366.306,406.649c-1.068-0.866-1.593-1.667-2.955-2.857c-0.678-0.593-1.522-1.369-2.246-2.083
				c-0.364-0.333-0.649-0.705-0.961-1.048l-0.751-0.848c-0.767-0.868-2.034-2.236-2.526-2.737c-0.489-0.5-0.765-1.228-2.179-2.145
				c-1.404-0.86-1.756-1.237-3.114-2.202c-0.681-0.484-1.779-1.088-2.923-1.617c-1.142-0.536-2.326-1.016-3.163-1.407
				c-1.665-0.796-3.379-1.49-5.749-2.809c-0.586-0.334-1.212-0.391-1.546-0.259c-0.332,0.133-0.357,0.482,0.351,0.921
				c1.424,0.844,1.846,1.029,2.553,1.716c0.715,0.689,2.823,1.649,3.768,1.767c0.476,0.059,1.376,0.563,2.252,1.137
				c0.879,0.573,1.713,1.227,2.175,1.518c0.467,0.29,1.237,0.707,1.969,1.184c0.724,0.467,1.428,1.033,1.861,1.415
				c0.832,0.766,1.754,2.041,4.338,4.014c0.288,0.221,0.65,0.513,1.242,1.096c0.299,0.287,0.639,0.661,1.098,1.127l1.714,1.594
				c0.681,0.634,2.276,1.61,2.81,2.046c0.525,0.446,2.134,2.494,3.766,2.661C369.724,409.004,367.376,407.511,366.306,406.649z" style="opacity: 1;"></path>
			<path class="st1" d="M371.092,405.467c-0.403-0.866-0.418-1.577-1.035-2.712c-0.609-1.139-1.654-2.774-2.127-3.428
				c-0.455-0.666-1.238-1.693-1.545-2.068c-0.302-0.372-0.381-0.947-1.353-1.6l-0.634-0.436c-0.166-0.111-0.305-0.214-0.439-0.328
				c-0.266-0.225-0.505-0.481-0.882-0.879c-0.747-0.805-2.493-2.206-3.445-3.051c-0.473-0.429-0.958-0.848-1.541-1.287
				c-0.587-0.431-1.252-0.911-2.208-1.301c-0.49-0.197-1.008,0.016-1.162,0.3c-0.085,0.138-0.096,0.285-0.042,0.403
				c0.056,0.117,0.171,0.207,0.392,0.266c0.442,0.131,0.734,0.28,0.952,0.436c0.219,0.159,0.369,0.335,0.529,0.613
				c0.16,0.28,0.522,0.628,0.923,0.952c0.401,0.321,0.841,0.613,1.164,0.708c0.665,0.18,1.77,2.126,2.291,2.693
				c0.266,0.281,0.746,0.685,1.234,1.096l0.714,0.6c0.118,0.103,0.213,0.173,0.293,0.254c0.083,0.08,0.156,0.154,0.218,0.222
				c0.507,0.58,0.993,1.534,2.732,2.915c0.374,0.321,0.997,0.812,2.261,2.953c0.314,0.532,1.158,1.494,1.365,1.919
				c0.224,0.427,0.397,2.204,1.558,2.741C372.484,408.003,371.504,406.334,371.092,405.467z" style="opacity: 1;"></path>
			<path class="st1" d="M379.569,413.364c-0.262-0.644-0.155-1.183-0.492-2.058c-0.332-0.876-0.864-2.212-1.113-2.768
				c-0.238-0.557-0.663-1.443-0.841-1.77c-0.174-0.322-0.088-0.81-0.807-1.403c-0.724-0.576-0.862-0.768-1.408-1.448
				c-0.136-0.163-0.335-0.374-0.571-0.579c-0.247-0.204-0.503-0.396-0.775-0.585c-0.537-0.381-1.104-0.734-1.492-1.019
				c-0.78-0.566-1.578-1.114-2.88-1.766c-0.676-0.325-1.543,0.595-0.826,0.912c0.709,0.339,0.912,0.46,1.151,0.936
				c0.243,0.47,1.147,1.067,1.678,1.105c0.269,0.013,0.63,0.382,0.951,0.799c0.322,0.414,0.608,0.89,0.771,1.052
				c0.087,0.093,0.198,0.192,0.345,0.322l0.471,0.424c0.323,0.301,0.63,0.626,0.782,0.859c0.299,0.482,0.443,1.241,1.64,2.446
				c0.265,0.276,0.658,0.718,1.336,2.467c0.169,0.437,0.782,1.209,0.912,1.536c0.123,0.321,0.069,1.77,1.175,2.05
				C380.664,415.135,379.825,414.011,379.569,413.364z" style="opacity: 1;"></path>
			<path class="st1" d="M375.686,286.268c-0.584,0.174-1.105,0.21-1.675,0.227c-0.572,0.015-1.194,0.012-2.027,0.053
				c-1.669,0.106-4.23-0.078-5.296-0.206c-1.066-0.107-2.771-0.359-3.41-0.469c-0.32-0.052-0.628-0.179-1.047-0.291
				c-0.417-0.115-0.966-0.202-1.691-0.213c-1.499-0.054-1.923-0.181-3.331-0.665c-0.704-0.248-1.777-0.59-2.861-1.007
				c-1.084-0.412-2.18-0.893-2.943-1.308c-1.525-0.829-3.024-1.717-5.235-3.125c-1.102-0.705-2.481-0.196-1.188,0.639
				c1.295,0.831,1.669,1.061,2.267,1.776c0.592,0.72,2.523,1.851,3.454,2.005c0.462,0.083,1.308,0.617,2.195,1.165
				c0.883,0.55,1.816,1.106,2.345,1.316c0.525,0.213,1.401,0.466,2.29,0.672c0.887,0.21,1.784,0.368,2.336,0.495l0.931,0.238
				c0.345,0.083,0.725,0.171,1.177,0.25c0.899,0.156,2.065,0.279,3.643,0.18c0.353-0.024,0.8-0.043,1.601-0.024
				c0.8,0.01,1.952,0.081,3.726,0.076c0.442-0.002,1.108-0.094,1.736-0.218c0.629-0.12,1.22-0.276,1.544-0.329
				c0.323-0.053,1.114-0.039,1.958-0.273c0.835-0.22,1.719-0.754,1.96-1.5c0.118-0.367,0.065-0.522-0.051-0.551
				c-0.118-0.029-0.305,0.071-0.552,0.21C377.06,285.678,376.275,286.098,375.686,286.268z" style="opacity: 1;"></path>
			<path class="st1" d="M356.021,284.499c0.942,0.059,1.58,0.349,2.823,0.257c1.239-0.093,3.022-0.356,3.746-0.448
				c0.73-0.097,1.888-0.229,2.294-0.248c0.427-0.028,0.855,0.247,1.884-0.072c1.039-0.323,1.34-0.319,2.418-0.399
				c0.539-0.044,1.355-0.207,2.168-0.486c0.774-0.271,1.545-0.573,2.118-0.747c1.147-0.343,2.276-0.725,3.973-1.208
				c0.837-0.23,1.148-1.518,0.121-1.256c-1.022,0.279-1.304,0.371-1.966,0.263c-0.665-0.107-2.08,0.34-2.554,0.79
				c-0.239,0.227-0.894,0.346-1.57,0.413l-0.504,0.042c-0.16,0.009-0.304,0.011-0.445,0.016c-0.28,0.005-0.526,0.005-0.694,0.028
				c-0.334,0.049-0.873,0.177-1.442,0.28c-0.566,0.103-1.153,0.189-1.524,0.199c-0.371,0.009-0.819-0.057-1.45-0.031
				c-0.626,0.017-1.47,0.169-2.461,0.587c-0.452,0.178-1.152,0.47-3.497,0.741c-0.581,0.069-1.739,0.438-2.189,0.432
				c-0.222,0.003-0.739-0.145-1.296-0.228c-0.563-0.082-1.155-0.109-1.71,0.199c-0.568,0.297-0.4,0.507,0.08,0.665
				C354.816,284.444,355.549,284.467,356.021,284.499z" style="opacity: 1;"></path>
			<path class="st1" d="M344.939,276.435c0.613,0.392,1.129,0.695,1.714,0.977c0.585,0.28,1.244,0.525,2.114,0.696
				c0.869,0.172,1.924,0.328,2.832,0.525c0.231,0.051,0.44,0.1,0.657,0.158l0.652,0.164l1.015,0.254
				c1.038,0.265,2.745,0.643,3.401,0.749c0.646,0.107,1.272,0.537,2.868,0.366c0.792-0.093,1.293-0.164,1.793-0.205l0.783-0.057
				c0.286-0.017,0.618-0.044,0.987-0.083c1.487-0.146,4.438-0.737,6.137-0.983c0.855-0.117,1.689-0.244,2.664-0.416
				c0.122-0.021,0.251-0.044,0.366-0.073c0.109-0.024,0.226-0.045,0.346-0.066l0.775-0.119c0.547-0.089,1.151-0.176,1.828-0.423
				c0.338-0.126,0.628-0.367,0.774-0.637c0.151-0.269,0.144-0.532,0.056-0.679c-0.083-0.151-0.224-0.202-0.354-0.197
				c-0.138,0.009-0.238,0.05-0.447,0.191c-0.459,0.284-0.943,0.37-1.3,0.412c-0.375,0.038-0.689,0.01-1.135-0.072
				c-0.226-0.038-0.527-0.054-0.925-0.005c-0.319,0.03-0.638,0.061-1.011,0.124c-0.723,0.119-1.439,0.298-1.836,0.502
				c-0.797,0.42-3.81,0.163-4.866,0.261c-0.519,0.044-1.402,0.231-2.161,0.345c-0.799,0.118-1.616,0.168-2.124,0.137
				c-1.034-0.073-2.367-0.475-5.368-0.588c-0.338-0.013-0.767-0.041-1.527-0.171c-0.387-0.067-0.828-0.155-1.421-0.285
				c-0.59-0.123-1.294-0.239-2.133-0.383c-0.419-0.074-1.056-0.109-1.665-0.169c-0.608-0.058-1.187-0.154-1.487-0.262
				c-0.3-0.107-0.945-0.5-1.569-0.981c-0.637-0.478-1.223-1.052-1.932-1.413c-0.354-0.181-0.526-0.207-0.572-0.082
				c-0.046,0.123,0.036,0.389,0.222,0.709c0.185,0.32,0.482,0.686,0.824,1.003C344.252,275.974,344.632,276.239,344.939,276.435z" style="opacity: 1;"></path>
			<path class="st1" d="M353.738,272.802c0.994,0.395,1.592,0.898,2.98,1.22c1.384,0.327,3.466,0.574,4.331,0.638
				c0.866,0.08,2.248,0.146,2.766,0.156c0.515,0.014,1.034,0.324,2.241,0.024c1.201-0.308,1.54-0.318,2.737-0.368
				c0.306-0.016,0.654-0.044,1.107-0.11c0.449-0.074,0.905-0.184,1.367-0.32c0.919-0.268,1.8-0.63,2.45-0.849
				c1.3-0.43,2.551-0.973,4.457-1.49c0.474-0.123,0.813-0.49,0.909-0.807c0.095-0.316-0.086-0.592-0.693-0.46
				c-1.199,0.29-1.515,0.415-2.27,0.347c-0.766-0.059-2.357,0.529-2.879,1.014c-0.265,0.246-0.997,0.414-1.74,0.488
				c-0.738,0.08-1.499,0.043-1.836,0.072c-0.77,0.057-2.634,0.417-3.459,0.418c-0.841-0.001-1.983-0.264-4.344,0.174
				c-0.264,0.046-0.604,0.097-1.209,0.095c-0.606-0.007-1.484-0.052-2.8-0.294c-0.653-0.111-2.026-0.145-2.512-0.31
				c-0.242-0.075-0.756-0.396-1.332-0.682c-0.581-0.285-1.21-0.539-1.886-0.46c-0.685,0.061-0.57,0.337-0.111,0.673
				C352.467,272.305,353.24,272.602,353.738,272.802z" style="opacity: 1;"></path>
			<path class="st1" d="M460.676,243.619c-0.96,1.272-1.827,1.944-3.173,3.55c-0.675,0.8-1.545,1.773-2.393,2.614
				c-0.849,0.851-1.662,1.539-2.167,1.919c-0.5,0.387-1.183,0.857-1.838,1.263c-0.656,0.408-1.28,0.758-1.624,0.946
				c-0.689,0.38-1.514,0.478-3.049,1.588c-1.539,1.118-2.026,1.353-3.681,2.292c-1.572,0.922-4.78,2.893-6.707,3.768
				c-0.966,0.444-1.938,0.867-3.046,1.31c-0.552,0.219-1.143,0.449-1.777,0.678l-1.011,0.371c-0.345,0.131-0.699,0.265-1.066,0.387
				c-0.366,0.122-0.673,0.286-0.905,0.426c-0.103,0.068-0.214,0.14-0.316,0.169c-0.11,0.038-0.144-0.015-0.159,0.015
				c-0.013,0.02-0.021,0.045-0.043,0.112c-0.015,0.057-0.065,0.196-0.087,0.327c-0.025,0.102,0.054,0.255,0.276,0.317
				c0.105,0.031,0.225,0.047,0.373,0.043c0.135-0.005,0.262-0.022,0.395-0.051c0.522-0.12,0.887-0.256,1.213-0.364
				c0.321-0.111,0.585-0.202,0.826-0.273c0.247-0.074,0.44-0.115,0.674-0.153c0.234-0.042,0.478-0.072,0.762-0.096
				c0.56-0.055,1.477-0.326,2.357-0.694c0.88-0.366,1.718-0.825,2.149-1.184c0.43-0.359,1.56-0.81,2.726-1.272
				c1.165-0.461,2.366-0.929,2.961-1.245c0.297-0.166,0.707-0.383,1.113-0.667l1.276-0.839c0.885-0.566,1.799-1.113,2.393-1.417
				c0.594-0.302,1.345-0.595,2.335-1.113c0.981-0.522,2.239-1.259,3.664-2.591l1.45-1.346c0.72-0.684,1.731-1.663,3.169-3.272
				c0.731-0.799,1.858-2.651,2.342-3.286c0.5-0.622,2.735-2.642,2.955-4.464C463.27,239.566,461.629,242.345,460.676,243.619z" style="opacity: 1;"></path>
			<path class="st1" d="M450.261,232.926c-0.477,1.252-1.085,1.96-1.866,3.545c-0.396,0.792-0.927,1.767-1.455,2.647
				c-0.528,0.88-1.049,1.669-1.363,2.128c-0.617,0.926-1.692,2.349-2.115,2.868c-0.421,0.524-1.057,0.856-1.866,2.224
				c-0.827,1.363-1.14,1.696-2.241,2.822c-1.092,1.131-3.211,3.505-4.583,4.704l-2.136,1.887c-0.388,0.354-0.779,0.679-1.237,1.143
				c-0.424,0.448-0.795,0.964-1.238,1.262l-0.587,0.405c-0.193,0.127-0.396,0.25-0.521,0.378c-0.125,0.127-0.175,0.269-0.056,0.402
				c0.116,0.124,0.424,0.273,0.973,0.163c0.544-0.126,0.909-0.394,1.166-0.605c0.259-0.217,0.437-0.402,0.604-0.557
				c0.323-0.306,0.59-0.525,0.965-0.666c0.834-0.377,2.558-1.879,3.045-2.708c0.492-0.816,3.265-2.551,4.088-3.378
				c0.84-0.8,2.394-2.841,3.152-3.711c0.384-0.433,0.898-0.907,1.508-1.645c0.607-0.738,1.317-1.743,2.015-3.233
				c0.154-0.335,0.363-0.751,0.772-1.477c0.405-0.727,1.025-1.754,1.9-3.372c0.449-0.809,0.972-2.591,1.228-3.221
				c0.138-0.313,0.58-0.996,0.922-1.82c0.342-0.822,0.571-1.783,0.331-2.559C451.18,229.021,450.758,231.681,450.261,232.926z" style="opacity: 1;"></path>
			<path class="st1" d="M439.184,216.923c-0.234,0.954-0.68,1.513-1.026,2.77c-0.344,1.259-0.921,3.129-1.179,3.901
				c-0.251,0.776-0.681,2.007-0.848,2.466c-0.169,0.46-0.607,0.815-0.744,1.983c-0.142,1.17-0.268,1.476-0.711,2.53
				c-0.438,1.049-1.127,3.267-1.717,4.425c-0.017,0.036-0.067,0.111-0.108,0.182l-0.129,0.21l-0.263,0.421
				c-0.181,0.28-0.369,0.568-0.578,0.864c-0.418,0.59-0.9,1.235-1.564,1.908c-0.327,0.333-0.433,0.802-0.364,1.127
				c0.068,0.321,0.358,0.483,0.822,0.068c0.891-0.851,1.076-1.129,1.747-1.49c0.331-0.184,0.755-0.637,1.089-1.142
				c0.168-0.251,0.314-0.515,0.424-0.761c0.053-0.123,0.101-0.241,0.136-0.351c0.034-0.115,0.053-0.196,0.097-0.358
				c0.028-0.39,0.419-1.012,0.849-1.669c0.429-0.653,0.89-1.32,1.058-1.703c0.344-0.767,0.776-2.58,1.074-3.357
				c0.299-0.774,1.011-1.771,1.201-4.171c0.033-0.539,0.159-1.347,0.902-3.891c0.185-0.637,0.248-1.992,0.368-2.471
				c0.127-0.473,1.139-2.114,0.483-3.276C439.551,213.989,439.422,215.971,439.184,216.923z" style="opacity: 1;"></path>
			<path class="st1" d="M407.461,295.72c-2.949,0.295-4.128-1.475-0.295-2.064c3.833-0.59,9.436-2.358,11.206-3.244
				c1.769-0.884,3.833-5.013,6.192-5.898c2.358-0.884,5.308-3.539,7.076-4.128c1.77-0.59,4.718-11.5,1.475-17.692
				c-3.243-6.192-4.424-8.846-5.012-12.385c-0.591-3.537-1.77-6.487-3.245-7.961c-1.474-1.475-7.372-7.667-7.372-9.731
				s-2.064-4.127-3.833-4.718c-1.77-0.59-4.423-5.602-4.423-7.077c0-1.475,0-7.372,2.065-11.501
				c2.064-4.128,1.473-7.372,1.473-9.141c0-1.77,0.295-3.539-0.59-5.603c-0.884-2.064-1.179-2.654-2.949-3.539
				c-1.769-0.885-2.358-2.064-5.602-2.949c-3.245-0.885-2.95-2.064-1.475-3.833c1.475-1.769,1.179-1.769,3.833,0.294
				c2.654,2.065,0.884,2.655,3.243,4.13c2.359,1.473,3.244,2.358,5.309,5.012c2.064,2.654,3.833,5.308,2.948,7.962
				c-0.884,2.655-2.654,4.424-1.473,5.898c1.179,1.475,2.654,1.475,1.179,2.654c-1.474,1.179-2.949,2.359-3.244,3.243
				c-0.294,0.885-2.948,7.077-1.179,9.142c1.77,2.064,3.834,4.423,3.834,4.423s1.77,3.539,2.949,4.718
				c1.179,1.18,2.948,4.719,4.127,5.898c1.18,1.18,4.718,5.308,5.309,7.962c0.588,2.654,2.358,10.616,5.307,13.27
				c2.949,2.654,3.243,8.257,3.538,11.5c0.295,3.243-2.358,8.552-2.358,12.974c0,4.423,1.179,6.782-1.179,5.897
				c-2.36-0.884-3.539-1.475-5.898-0.884c-2.358,0.589-4.127,2.358-6.193,4.128c-2.064,1.769-1.473,2.654-3.538,2.358
				c-2.064-0.294-4.128,0.295-6.193,0.885C410.41,296.309,407.461,295.72,407.461,295.72z" style="opacity: 1;"></path>
			<path class="st1" d="M396.256,188.385c-0.346,0.865-2.949,5.013-3.833,8.552c-0.885,3.537-2.654,6.192-1.179,5.307
				c1.475-0.885,5.012-5.898,6.487-6.488c1.475-0.59,0-1.475,0-2.358c0-0.885-0.884-1.18-0.59-2.949
				C397.436,188.68,397.436,185.436,396.256,188.385z" style="opacity: 1;"></path>
			<path class="st1" d="M400.975,197.525c1.473-1.474,0.884-3.244,2.063-4.423c1.18-1.179,0.885,2.654,1.18,5.013
				c0.294,2.358-0.294,2.948-1.475,3.538c-1.179,0.591-1.769,3.834-3.539,2.655C397.436,203.128,400.975,197.525,400.975,197.525z" style="opacity: 1;"></path>
			<path class="st1" d="M406.282,204.013c0,0,0,2.654-1.77,2.359c-1.769-0.295,0-2.949,0.885-4.424
				C406.282,200.474,406.576,202.833,406.282,204.013z" style="opacity: 1;"></path>
			<path class="st1" d="M394.191,222.886c-1.119-2.987-2.949-6.192-3.537-8.258c-0.591-2.063-5.013-9.141-4.424-6.782
				c0.59,2.36,1.475,6.488,1.179,8.552c-0.294,2.064,0.59,2.064,1.77,2.948c1.179,0.884,2.358,2.949,3.539,4.128
				C393.897,224.655,395.076,225.244,394.191,222.886z" style="opacity: 1;"></path>
		</g>
		<g>
			<path class="st1" d="M361.983,164.188c-2.811-3.344-5.329-5.888-7.542-8.017c-1.192-1.141-2.297-2.156-3.344-3.086
				c-0.273-0.703-0.5-1.429-0.753-2.121c-0.145-0.398-0.295-0.786-0.459-1.159c-0.086-0.193-0.152-0.337-0.286-0.611
				c-0.061-0.112-0.152-0.229-0.209-0.316l-0.162-0.233c-0.873-1.219-1.787-2.12-2.682-2.846c-1.812-1.43-3.481-2.278-5.708-3.171
				c-0.56-0.219-1.235-0.435-1.99-0.626c-0.771-0.195-1.549-0.346-2.393-0.523c-1.772-1.308-3.96-2.847-6.411-4.484
				c-3.21-2.149-6.87-4.455-10.551-6.691l-10.643-6.387l-4.565-2.742c-1.055-0.632-2.039-1.212-2.922-1.715
				c-0.074-0.089-0.151-0.18-0.232-0.275c-1.531-1.836-2.333-3.215-2.947-4.377c-0.601-1.177-0.975-2.184-1.368-3.584
				c-0.397-1.396-1.359-3.719-2.568-6.026c-0.605-1.15-1.285-2.288-1.981-3.269c-0.348-0.491-0.698-0.942-1.038-1.335
				c-0.349-0.403-0.653-0.711-0.992-1.024c-0.16-0.139-0.338-0.298-0.523-0.477c-0.182-0.167-0.374-0.361-0.584-0.568l-1.408-1.438
				c-1.043-1.059-2.297-2.269-3.663-3.403c-1.361-1.139-2.828-2.196-4.191-3.041c-1.36-0.847-2.606-1.484-3.491-1.853
				c-1.768-0.755-4.712-1.622-7.673-2.164c-2.964-0.563-5.914-0.851-7.762-1.073c-1.83-0.213-3.993-0.582-6.991-0.825
				c-2.995-0.25-6.804-0.342-11.878-0.137c-0.51,0.019-1.085,0.036-1.798,0.038c-3.707-1.853-7.731-3.847-11.764-5.837l-1.982-0.96
				c-0.117-0.59-0.2-1.151-0.271-1.656c-0.115-0.85-0.191-1.581-0.265-2.27l-0.118-1.022l-0.018-0.13l-0.029-0.174
				c-0.015-0.119-0.045-0.234-0.085-0.346l-0.027-0.087l-0.015-0.056l-0.027-0.107l-0.052-0.217
				c-0.134-0.581-0.243-1.197-0.356-1.916c-0.234-1.431-0.951-3.884-2.272-6.292c-0.666-1.196-1.498-2.388-2.566-3.341
				c-0.266-0.237-0.547-0.459-0.84-0.656c-0.146-0.1-0.295-0.192-0.447-0.278c-0.16-0.089-0.368-0.218-0.562-0.285
				c-0.578-0.218-1.021-0.32-1.429-0.392c-0.8-0.139-1.999-0.459-3.419-0.774c-1.42-0.319-3.065-0.645-4.735-0.916
				c-3.336-0.55-6.783-0.871-8.606-0.836c-0.91,0.013-2.093,0.083-3.418,0.221c-0.664,0.069-1.362,0.155-2.089,0.266l-1.063,0.176
				l-1.074,0.189c-2.871,0.529-5.671,1.254-7.425,1.659c-0.38,0.086-0.782,0.172-1.2,0.262c-0.068-0.019-0.135-0.037-0.203-0.056
				l-0.912-0.256c-4.83-1.363-10.321-3.075-16.732-4.897c-1.605-0.454-3.269-0.914-5.002-1.365c-1.744-0.451-3.51-0.88-5.358-1.331
				c-3.689-0.894-7.638-1.815-11.896-2.627c-0.952-0.184-1.971-0.372-3.103-0.57c-1.129-0.192-2.377-0.426-3.811-0.611
				c-2.841-0.346-6.282-0.689-10.732-0.972c-4.447-0.283-9.885-0.488-16.668-0.554c-3.392-0.035-7.118-0.036-11.224-0.028
				c-2.06,0.007-4.184,0.015-6.423-0.073c-2.237-0.08-4.574-0.22-7.023-0.39c-4.89-0.314-12.277-0.89-19.381-0.616
				c-3.547,0.132-7.01,0.51-10.001,1.059c-2.991,0.524-5.558,1.021-7.366,1.38c-1.809,0.359-4.839,0.894-8.537,1.833
				c-1.848,0.472-3.861,1.052-5.953,1.795c-1.045,0.372-2.108,0.785-3.176,1.253c-0.53,0.235-1.073,0.476-1.615,0.754
				c-0.541,0.303-1.04,0.61-1.55,0.941c-4.048,2.651-7.666,6.125-11.338,9.043l-0.688,0.542c-0.123,0.092-0.208,0.172-0.324,0.233
				l-0.368,0.215c-0.498,0.284-1.001,0.552-1.508,0.793c-1.016,0.483-2.053,0.873-3.1,1.133c-2.088,0.537-4.228,0.472-6.09-0.06
				c-0.934-0.259-1.668-0.572-2.243-0.832l-1.279-0.604c-0.572-0.264-0.656-0.177-0.329,0.214c0.334,0.383,1.087,1.081,2.342,1.794
				c1.243,0.708,3.067,1.397,5.224,1.462c2.152,0.086,4.498-0.477,6.658-1.46c0.542-0.244,1.078-0.512,1.606-0.8l0.272-0.151
				c0.091-0.056,0.198-0.14,0.267-0.189l0.353-0.258l0.701-0.528c0.929-0.709,1.839-1.448,2.736-2.189
				c1.791-1.485,3.526-2.98,5.208-4.31c0.84-0.664,1.664-1.288,2.468-1.847c0.403-0.278,0.798-0.546,1.19-0.791l0.575-0.352
				c0.171-0.102,0.338-0.204,0.535-0.292c0.365-0.181,0.766-0.366,1.163-0.547c0.398-0.176,0.792-0.351,1.191-0.513
				c0.792-0.328,1.582-0.629,2.37-0.906c1.576-0.559,3.14-1.028,4.702-1.448c3.125-0.834,6.242-1.462,9.531-2.021
				c1.645-0.279,3.335-0.539,5.097-0.791l2.688-0.374c0.89-0.113,1.81-0.211,2.753-0.291c3.777-0.321,7.971-0.347,12.81-0.132
				c4.44,0.185,9.427,0.63,14.676,0.958c-0.886,0.262-1.829,0.59-2.84,1.012c0.002,0.006-2.28,0.719-5.247,2.097
				c-2.972,1.36-6.597,3.433-9.468,5.577c-2.871,2.141-4.54,3.909-5.951,5.668c-0.702,0.886-1.334,1.782-1.967,2.787
				c-0.628,1.007-1.265,2.124-1.854,3.517c-0.569,1.409-0.533,1.978-0.354,1.895c0.196-0.076,0.601-0.754,1.243-1.626
				c0.636-0.878,1.522-1.944,2.497-2.942c0.971-1.003,2.019-1.946,2.867-2.687c3.396-2.954,7.094-5.6,11.02-7.861
				c1.965-1.124,4.171-2.415,6.622-3.536c2.442-1.113,5.155-2.075,7.921-2.364c1.376-0.142,2.436-0.339,3.108-0.593
				c0.453-0.171,0.724-0.386,0.749-0.624c0.632,0.005,1.26,0.006,1.874,0.004l8.625,0.029c5.662,0.044,11.075,0.185,15.82,0.453
				c4.727,0.262,8.787,0.65,11.784,1.024c-0.215-0.009-0.439-0.016-0.675-0.019c-2.386-0.013-5.857,0.425-10.281,1.956
				c0.005,0.005-3.018,0.81-6.982,2.402c-3.972,1.568-8.844,3.961-12.852,6.28c-4.01,2.316-6.52,4.113-8.832,5.843
				c-2.304,1.74-4.398,3.432-7.439,5.759c-6.049,4.692,4.579-1.493,9.869-4.472c5.271-3.035,10.495-6.103,15.923-8.726
				c2.714-1.307,5.755-2.804,9.088-4.077c3.326-1.268,6.969-2.311,10.674-2.593c1.846-0.14,3.303-0.325,4.212-0.581
				c0.905-0.252,1.264-0.599,0.797-0.981c-0.201-0.16-0.565-0.33-1.108-0.472c0.768,0.1,1.549,0.243,2.354,0.401
				c1.669,0.322,3.409,0.693,5.185,1.1c3.55,0.81,7.24,1.771,10.786,2.727l5.167,1.408c1.643,0.458,3.216,0.921,4.679,1.359
				l7.182,2.191c1.486,0.456,2.971,0.941,4.542,1.454c-2.34,0.806-5.071,1.913-8.302,3.498c-1.002,0.492-2.288,1.104-4.65,2.069
				l-1.985,0.792c-0.743,0.281-1.552,0.621-2.452,0.914c-1.824,0.602-4.062,1.273-6.781,1.991c-2.713,0.737-8.069,2.61-10.14,3.07
				c-2.061,0.479-9.917,0.989-13.649,3.678c-1.859,1.344-0.761,1.387,1.311,0.983c2.075-0.403,5.138-1.238,7.208-1.699
				c4.137-0.927,7.033-0.942,12.569-2.298c2.765-0.683,6.219-1.596,9.392-2.558c0.778-0.233,1.638-0.495,2.37-0.768l2.072-0.737
				l3.251-1.161c1.661-0.591,3.814-1.352,5.806-2.027c1.989-0.678,3.817-1.265,4.815-1.576c0.998-0.312,2.041-0.477,3.394-0.791
				c0.946-0.216,2.046-0.512,3.395-0.957l3.102,1.155l4.161,1.59c2.97,1.154,6.356,2.504,10.299,4.14
				c7.88,3.294,12.863,5.689,17.84,8.088c2.481,1.211,4.976,2.424,7.77,3.841l3.136,1.608c-0.385-0.053-0.776-0.109-1.185-0.171
				c-0.599-0.095-1.201-0.178-1.838-0.311l-2.023-0.449c-1.419-0.31-3.584-0.607-5.662-0.838c-2.079-0.232-4.069-0.394-5.144-0.547
				c-1.073-0.155-3.547-0.8-6.355-1.102c-2.796-0.316-5.95-0.235-8.059,0.767c-1.049,0.5-1.277,0.821-1.003,0.993
				c0.277,0.176,1.06,0.207,2.108,0.221c2.091,0.001,5.273,0,7.398,0.203c2.122,0.191,3.875,0.559,5.791,0.987
				c1.917,0.431,4,0.922,6.801,1.472c1.4,0.276,2.975,0.605,4.599,0.97c0.394,0.084,0.855,0.2,1.293,0.287l1.341,0.228
				c0.862,0.141,1.723,0.27,2.566,0.388c2.661,0.373,5.146,0.631,6.972,0.802c4.271,2.197,9.611,4.91,15.445,7.923
				c-0.9-0.071-1.701-0.105-2.349-0.102c-2.035,0.005-6.504-0.736-11.097-1.485c-4.585-0.754-9.313-1.554-11.762-1.834
				c-2.48-0.312-6.54-0.619-10.572-0.806c-4.039-0.198-8.078-0.28-10.598-0.393c-2.52-0.111-5.542-0.372-9.708-0.413
				c-4.162-0.035-9.478,0.134-16.491,1.081c-1.566,0.217-3.568,0.467-7.177,0.863c-3.607,0.408-8.827,0.93-16.786,2.065
				c-1.989,0.286-4.949,0.894-7.761,1.544c-2.813,0.628-5.508,1.246-6.984,1.527c-1.477,0.276-4.983,0.632-8.798,1.433
				c-3.792,0.785-7.914,2.073-10.425,3.924l0.257,1.169c1.276-0.354,3.253-0.994,5.373-1.604c2.118-0.613,4.37-1.206,6.12-1.598
				c5.829-1.29,9.842-1.377,17.732-2.719c3.919-0.65,8.839-1.342,13.407-1.842c4.567-0.506,8.779-0.832,11.258-0.995
				c2.478-0.167,5.704-0.337,8.684-0.436c2.979-0.102,5.712-0.135,7.202-0.146c2.986-0.002,5.949,0.549,12.918,0.226
				c3.486-0.147,5.734-0.149,7.974-0.065c2.24,0.089,4.473,0.265,7.943,0.613l6.318,0.622l7.766,0.655
				c5.363,0.446,10.84,0.967,14.795,1.533c3.843,0.546,7.682,1.15,11.936,1.967c1.718,0.906,3.449,1.826,5.185,2.757
				c11.631,6.212,23.313,12.97,31.574,18.258l6.22,3.994c2.098,1.331,4.224,2.649,6.389,3.973c4.331,2.648,8.808,5.323,13.479,8.256
				c1.475,0.924,2.97,1.879,4.485,2.86c-3.458-0.269-6.757-0.272-8.733-0.098c-2.219,0.188-7.174-0.102-12.208-0.568
				c-2.517-0.235-5.05-0.529-7.277-0.837c-2.219-0.302-4.173-0.617-5.519-0.784c-2.694-0.332-7.03-0.815-11.388-1.372
				c-4.355-0.552-8.734-1.121-11.468-1.527c-2.725-0.407-6.014-1.042-10.549-1.528c-4.61-0.554-10.656-0.619-18.337,0.795
				l-7.826,1.452l-7.327,1.427c-2.977,0.587-6.539,1.312-10.858,2.096c-1.081,0.195-2.424,0.471-3.886,0.767l-1.105,0.226
				l-1.148,0.191l-2.35,0.419c-3.118,0.583-6.077,1.235-7.702,1.525c-1.624,0.283-5.467,0.699-9.658,1.509
				c-4.192,0.806-8.722,1.995-11.732,3.608c-6.011,3.238,6.676-0.405,13.11-1.712c3.217-0.668,5.93-1.044,8.91-1.421l10.563-1.286
				c1.166-0.158,2.317-0.369,3.521-0.572l3.717-0.667l7.623-1.441c4.984-0.954,9.542-1.715,12.225-2.078
				c2.683-0.376,6.17-0.771,9.385-0.935c3.214-0.179,6.151-0.123,7.745-0.04c0.798,0.038,1.594,0.125,2.449,0.243l2.861,0.436
				c2.166,0.309,4.844,0.639,8.673,0.905c7.662,0.557,9.828,0.993,17.462,2.159c3.819,0.569,9.605,1.261,15.576,1.512
				c5.955,0.259,12.006,0.243,16.389,0.445c4.381,0.197,8.755,0.432,13.607,1.068c0.497,0.063,0.997,0.137,1.505,0.213
				c1.303,0.88,2.624,1.781,3.964,2.71c1.286,0.894,2.618,1.809,3.912,2.753c1.299,0.953,2.595,1.967,3.889,3.039
				c0.781,0.648,1.561,1.322,2.341,2.01c0.44,0.558,0.91,0.943,1.338,1.198c1.355,1.238,2.708,2.537,4.052,3.905
				c2.556,2.603,4.855,5.028,6.696,7.016c1.843,1.986,3.231,3.535,4.06,4.286c0.822,0.754,1.124,0.677,0.621-0.535
				C366.132,169.879,364.786,167.544,361.983,164.188z M215.638,72.556c-4.022-1.938-7.652-3.65-10.454-4.952
				c-2.802-1.302-5.889-2.738-9.487-4.28c-1.588-0.68-3.282-1.38-5.089-2.091c0.09-0.021,0.179-0.042,0.27-0.061
				c0.76-0.166,1.526-0.302,2.4-0.428c0.438-0.064,0.898-0.121,1.418-0.181c0.511-0.066,1.031-0.117,1.632-0.166
				c2.382-0.192,6.034-0.433,9.765-0.37c3.716,0.055,7.564,0.439,10.05,1.354c0.308,0.112,0.609,0.234,0.899,0.367
				c0.169,0.08,0.209,0.1,0.323,0.177c0.118,0.078,0.234,0.166,0.349,0.258c0.459,0.373,0.886,0.854,1.281,1.388
				c0.791,1.076,1.462,2.362,2.09,3.77c0.631,1.414,1.207,2.96,1.839,4.664l0.461,1.215l0.06,0.271l0.064,0.327l0.116,0.686
				c0.103,0.655,0.193,1.346,0.299,2.069L215.638,72.556z M248.082,88.578c0.979,0.068,1.813,0.128,2.385,0.171
				c2.156,0.171,4.262,0.879,9.281,0.825c2.478-0.018,4.076,0.11,5.643,0.334c1.566,0.239,3.119,0.566,5.46,1.277
				c2.337,0.705,5.826,1.866,9.085,3.722c1.631,0.917,3.201,1.995,4.57,3.132c1.367,1.126,2.563,2.344,3.433,3.381
				c0.82,1.061,1.587,2.27,2.307,3.53c0.724,1.27,1.421,2.62,2.15,4.068c0.732,1.449,1.491,2.995,2.37,4.654
				c0.497,0.929,1.03,1.896,1.63,2.889c-3.86-2.331-9.07-5.564-14.691-8.949c-0.278-0.514-0.68-1.081-1.244-1.653
				c-1.392-1.387-2.702-2.189-3.816-2.861c-1.122-0.658-2.082-1.14-2.952-1.575l-5.004-2.47c-0.467-0.23-1.032-0.477-1.671-0.728
				l-0.495-0.186l-0.256-0.095l-0.183-0.061c-0.078-0.027-0.158-0.042-0.229-0.06l-1.114-0.294c-0.042-0.011-0.086-0.02-0.126-0.03
				c-5.25-2.992-9.911-5.567-13.021-7.199C250.54,89.845,249.361,89.234,248.082,88.578z M343.344,146.738l-0.237-0.182
				c0.771,0.372,1.52,0.815,2.212,1.37c0.539,0.433,1.044,0.93,1.507,1.484c0.036,0.043,0.072,0.091,0.108,0.136
				C345.72,148.559,344.538,147.636,343.344,146.738z" style="opacity: 1;"></path>
			<path class="st1" d="M122.721,101.517c0.06-0.21,0.003-0.316-0.067-0.372c-0.073-0.057-0.178-0.057-0.329-0.024
				c-0.069,0.014-0.148,0.029-0.197,0.024l-0.025-0.007l-0.005-0.002l0.042,0.132c0.046,0.191,0.074,0.327,0.068,0.456l0.094,0.422
				C122.528,101.958,122.673,101.689,122.721,101.517z" style="opacity: 1;"></path>
			<path class="st1" d="M122.208,102.224l0.169,0.959l0.103-0.075c0.009-0.007,0.02-0.014,0.03-0.021l-0.208-0.942
				C122.271,102.172,122.243,102.201,122.208,102.224z" style="opacity: 1;"></path>
			<path class="st1" d="M124.478,60.683c0.826-0.721,1.289-1.516,1.412-2.098c0.121-0.588-0.08-0.947-0.526-0.954
				c-0.447-0.004-1.125,0.326-2.111,1.049c-0.989,0.726-2.321,1.842-4.162,3.484c0,0.002-1.331,0.957-3.218,2.248
				c-1.882,1.296-4.313,2.952-6.305,4.57c-1.99,1.617-3.162,2.94-4.126,4.277c-0.482,0.671-0.909,1.352-1.332,2.112
				c-0.421,0.76-0.84,1.603-1.226,2.634c-0.367,1.042-0.312,1.458-0.139,1.411c0.189-0.041,0.521-0.518,1.017-1.128
				c0.49-0.613,1.142-1.358,1.856-2.051c0.709-0.696,1.468-1.348,2.076-1.869c2.436-2.079,5.047-4.037,7.716-6.015
				c1.336-0.988,2.773-2.216,4.296-3.527L124.478,60.683z" style="opacity: 1;"></path>
			<path class="st1" d="M126.212,65.054c0.796-0.945,0.614-1.977-0.156-2.149c-0.761-0.172-2.21,0.639-3.511,3.467
				c0,0-0.587,0.849-1.342,2.038c-0.756,1.186-1.68,2.708-2.421,4.026c-1.492,2.626-1.455,3.796-2.585,6.053
				c-0.586,1.11-0.068,1.039,0.792,0.463c0.86-0.576,2.002-1.695,2.654-2.504c1.314-1.619,2.299-3.414,3.284-5.184
				C123.911,69.501,124.607,66.982,126.212,65.054z" style="opacity: 1;"></path>
			<path class="st1" d="M66.403,56.581l1.353-0.957l0.702-0.48l0.601-0.401c0.009-0.007,0.089-0.042,0.154-0.072
				l0.198-0.088l0.403-0.176l0.826-0.349l1.71-0.701c1.16-0.48,2.353-0.967,3.56-1.601c1.214-0.625,2.026-1.615,2.224-2.368
				c0.106-0.373,0.08-0.664-0.027-0.832c-0.104-0.169-0.285-0.218-0.514-0.172c-0.475,0.099-1.106,0.509-2.328,1.083
				c-1.221,0.598-3.111,1.321-5.868,2.493l-0.337,0.112l-0.973,0.34c-0.078,0.034-0.16,0.049-0.241,0.102L67.64,52.63l-0.322,0.176
				l-0.714,0.401c-0.506,0.286-1.066,0.615-1.661,0.975c-2.384,1.439-5.296,3.477-7.622,5.428c-2.331,1.945-3.7,3.445-4.925,4.888
				c-1.218,1.451-2.29,2.855-3.873,4.791c-1.571,1.948-0.778,1.641,0.755,0.531c1.537-1.113,3.876-2.957,5.408-4.189
				c3.052-2.48,6.038-4.986,9.215-7.241L66.403,56.581z" style="opacity: 1;"></path>
			<path class="st1" d="M55.414,50.895c1.058-0.067,1.887-0.197,2.437-0.425c0.544-0.224,0.802-0.559,0.548-0.952
				c-0.251-0.379-1.045-0.853-2.59-0.953c-1.524-0.103-3.839,0.28-6.403,1.776c0.004-0.001-1.814,0.809-4.003,2.305
				c-2.205,1.475-4.76,3.587-6.879,5.375c-2.123,1.787-3.451,3.015-4.739,4.128c-0.644,0.554-1.276,1.08-1.999,1.595
				c-0.725,0.513-1.541,1.025-2.569,1.478c-1.031,0.441-1.397,0.631-1.258,0.774c0.134,0.13,0.776,0.177,1.678,0.048
				c0.902-0.124,2.055-0.439,3.17-0.889c1.118-0.445,2.197-1.008,3.022-1.505c3.306-2,6.073-4.575,8.923-6.861
				c1.425-1.142,2.95-2.499,4.717-3.66C51.22,51.971,53.275,51.027,55.414,50.895z" style="opacity: 1;"></path>
			<path class="st1" d="M510.593,321.04c-1.591-2.157-4.127-5.283-5.711-7.453c-3.168-4.34-4.754-7.602-8.829-13.504
				c-4.064-5.91-10.139-14.844-12.76-18.524c-1.299-1.845-3.004-4.236-4.61-6.424c-1.603-2.189-3.108-4.176-3.936-5.254
				c-0.828-1.077-1.545-2.243-2.62-3.71c-1.074-1.465-2.504-3.241-4.796-5.47l-2.917-2.822c-0.424-0.401-0.759-0.756-1.109-1.136
				c-0.353-0.381-0.688-0.755-1.018-1.133c-1.322-1.513-2.573-3.085-4.49-5.565c-1.92-2.475-4.872-6.156-7.955-9.9
				c-3.08-3.746-6.346-7.504-8.762-10.203c-1.204-1.355-2.435-2.687-3.739-4.029c-0.653-0.67-1.324-1.343-2.02-2.022l-1.064-1.022
				c-0.107-0.102-0.136-0.126-0.189-0.19l-0.264-0.296c-0.176-0.195-0.358-0.387-0.543-0.576c-2.97-3.008-6.794-5.475-10.91-8.826
				c-1.021-0.841-2.004-1.529-2.838-2.066c-0.835-0.532-1.526-0.92-2.002-1.063c-0.47-0.143-0.741-0.011-0.62,0.524
				c0.122,0.527,0.667,1.451,1.864,2.586c1.198,1.129,2.227,1.955,3.103,2.666c0.879,0.707,1.611,1.287,2.263,1.827
				c1.302,1.081,2.297,2.002,3.495,3.322c0.595,0.66,1.462,1.497,2.376,2.434c0.457,0.469,0.922,0.964,1.356,1.471l0.16,0.19
				l0.158,0.184c0.06,0.065,0.137,0.135,0.193,0.19l0.407,0.398l0.822,0.804c2.201,2.144,4.391,4.319,5.788,5.451
				c1.405,1.124,3.898,4.264,6.278,7.642c2.388,3.371,4.721,6.947,6.087,8.734c1.365,1.786,3.664,4.571,6.028,7.321
				c1.186,1.382,2.37,2.728,3.484,3.984c1.163,1.263,2.131,2.273,2.86,3.128c1.451,1.687,3.059,3.823,5.343,6.699
				c2.282,2.883,5.238,6.509,9.368,11.266c1.846,2.129,4.652,5.492,12.755,17.377c2.026,2.973,6.606,8.553,8.173,10.745
				c0.778,1.101,2.361,3.838,4.37,6.691c2.003,2.854,4.447,5.814,6.809,7.384C512.796,324.431,512.183,323.195,510.593,321.04z" style="opacity: 1;"></path>
		</g>
	</g>
</g>
<g font-family="noto" id="svgTXT" font-size="65"><text x="50%" y="51.625%" fill="000000" text-anchor="middle" font-weight="bolder" style="fill: rgb(0, 0, 0);"></text></g></svg>
